<svg width="441" height="262" viewBox="0 0 441 262" fill="none" xmlns="http://www.w3.org/2000/svg">
<g filter="url(#filter0_d)">
<path d="M12 36C12 22.7452 22.7452 12 36 12L359 12C372.255 12 383 22.7452 383 36C383 49.2548 372.255 60 359 60L36 60C22.7452 60 12 49.2548 12 36Z" fill="#0B1927"/>
<path d="M12 36C12 22.7452 22.7452 12 36 12L359 12C372.255 12 383 22.7452 383 36C383 49.2548 372.255 60 359 60L36 60C22.7452 60 12 49.2548 12 36Z" fill="url(#paint0_linear)" fill-opacity="0.5"/>
<path d="M12 36C12 22.7452 22.7452 12 36 12L359 12C372.255 12 383 22.7452 383 36C383 49.2548 372.255 60 359 60L36 60C22.7452 60 12 49.2548 12 36Z" fill="url(#paint1_linear)" fill-opacity="0.06"/>
<path d="M33.2559 36.2959C31.8086 35.8799 30.7539 35.3701 30.0918 34.7666C29.4355 34.1572 29.1074 33.4072 29.1074 32.5166C29.1074 31.5088 29.5088 30.6768 30.3115 30.0205C31.1201 29.3584 32.1689 29.0273 33.458 29.0273C34.3369 29.0273 35.1191 29.1973 35.8047 29.5371C36.4961 29.877 37.0293 30.3457 37.4043 30.9434C37.7852 31.541 37.9756 32.1943 37.9756 32.9033H36.2793C36.2793 32.1299 36.0332 31.5234 35.541 31.084C35.0488 30.6387 34.3545 30.416 33.458 30.416C32.626 30.416 31.9756 30.6006 31.5068 30.9697C31.0439 31.333 30.8125 31.8398 30.8125 32.4902C30.8125 33.0117 31.0322 33.4541 31.4717 33.8174C31.917 34.1748 32.6699 34.5029 33.7305 34.8018C34.7969 35.1006 35.6289 35.4316 36.2266 35.7949C36.8301 36.1523 37.2754 36.5713 37.5625 37.0518C37.8555 37.5322 38.002 38.0977 38.002 38.748C38.002 39.7852 37.5977 40.6172 36.7891 41.2441C35.9805 41.8652 34.8994 42.1758 33.5459 42.1758C32.667 42.1758 31.8467 42.0088 31.085 41.6748C30.3232 41.335 29.7344 40.8721 29.3184 40.2861C28.9082 39.7002 28.7031 39.0352 28.7031 38.291H30.3994C30.3994 39.0645 30.6836 39.6768 31.252 40.1279C31.8262 40.5732 32.5908 40.7959 33.5459 40.7959C34.4365 40.7959 35.1191 40.6143 35.5938 40.251C36.0684 39.8877 36.3057 39.3926 36.3057 38.7656C36.3057 38.1387 36.0859 37.6553 35.6465 37.3154C35.207 36.9697 34.4102 36.6299 33.2559 36.2959ZM39.4873 37.1572C39.4873 36.2256 39.6689 35.3877 40.0322 34.6436C40.4014 33.8994 40.9111 33.3252 41.5615 32.9209C42.2178 32.5166 42.9648 32.3145 43.8027 32.3145C45.0977 32.3145 46.1436 32.7627 46.9404 33.6592C47.7432 34.5557 48.1445 35.748 48.1445 37.2363V37.3506C48.1445 38.2764 47.9658 39.1084 47.6084 39.8467C47.2568 40.5791 46.75 41.1504 46.0879 41.5605C45.4316 41.9707 44.6758 42.1758 43.8203 42.1758C42.5312 42.1758 41.4854 41.7275 40.6826 40.8311C39.8857 39.9346 39.4873 38.748 39.4873 37.2715V37.1572ZM41.1221 37.3506C41.1221 38.4053 41.3652 39.252 41.8516 39.8906C42.3438 40.5293 43 40.8486 43.8203 40.8486C44.6465 40.8486 45.3027 40.5264 45.7891 39.8818C46.2754 39.2314 46.5186 38.3232 46.5186 37.1572C46.5186 36.1143 46.2695 35.2705 45.7715 34.626C45.2793 33.9756 44.623 33.6504 43.8027 33.6504C43 33.6504 42.3525 33.9697 41.8604 34.6084C41.3682 35.2471 41.1221 36.1611 41.1221 37.3506ZM51.7129 32.4902L51.7568 33.5449C52.4541 32.7246 53.3945 32.3145 54.5781 32.3145C55.9082 32.3145 56.8135 32.8242 57.2939 33.8438C57.6104 33.3867 58.0205 33.0176 58.5244 32.7363C59.0342 32.4551 59.6348 32.3145 60.3262 32.3145C62.4121 32.3145 63.4727 33.4189 63.5078 35.6279V42H61.8818V35.7246C61.8818 35.0449 61.7266 34.5381 61.416 34.2041C61.1055 33.8643 60.584 33.6943 59.8516 33.6943C59.248 33.6943 58.7471 33.876 58.3486 34.2393C57.9502 34.5967 57.7188 35.0801 57.6543 35.6895V42H56.0195V35.7686C56.0195 34.3857 55.3428 33.6943 53.9893 33.6943C52.9229 33.6943 52.1934 34.1484 51.8008 35.0566V42H50.1748V32.4902H51.7129ZM69.915 42.1758C68.626 42.1758 67.5771 41.7539 66.7686 40.9102C65.96 40.0605 65.5557 38.9268 65.5557 37.5088V37.21C65.5557 36.2666 65.7344 35.4258 66.0918 34.6875C66.4551 33.9434 66.959 33.3633 67.6035 32.9473C68.2539 32.5254 68.957 32.3145 69.7129 32.3145C70.9492 32.3145 71.9102 32.7217 72.5957 33.5361C73.2812 34.3506 73.624 35.5166 73.624 37.0342V37.7109H67.1816C67.2051 38.6484 67.4775 39.4072 67.999 39.9873C68.5264 40.5615 69.1943 40.8486 70.0029 40.8486C70.5771 40.8486 71.0635 40.7314 71.4619 40.4971C71.8604 40.2627 72.209 39.9521 72.5078 39.5654L73.501 40.3389C72.7041 41.5635 71.5088 42.1758 69.915 42.1758ZM69.7129 33.6504C69.0566 33.6504 68.5059 33.8906 68.0605 34.3711C67.6152 34.8457 67.3398 35.5137 67.2344 36.375H71.998V36.252C71.9512 35.4258 71.7285 34.7871 71.3301 34.3359C70.9316 33.8789 70.3926 33.6504 69.7129 33.6504ZM89.6465 37.9395C89.4883 39.293 88.9873 40.3389 88.1436 41.0771C87.3057 41.8096 86.1895 42.1758 84.7949 42.1758C83.2832 42.1758 82.0703 41.6338 81.1562 40.5498C80.248 39.4658 79.7939 38.0156 79.7939 36.1992V34.9688C79.7939 33.7793 80.0049 32.7334 80.4268 31.8311C80.8545 30.9287 81.458 30.2373 82.2373 29.7568C83.0166 29.2705 83.9189 29.0273 84.9443 29.0273C86.3037 29.0273 87.3936 29.4082 88.2139 30.1699C89.0342 30.9258 89.5117 31.9746 89.6465 33.3164L87.9502 33.3164C87.8037 32.2969 87.4844 31.5586 86.9922 31.1016C86.5059 30.6445 85.8232 30.416 84.9443 30.416C83.8662 30.416 83.0195 30.8145 82.4043 31.6113C81.7949 32.4082 81.4902 33.542 81.4902 35.0127V36.252C81.4902 37.6406 81.7803 38.7451 82.3604 39.5654C82.9404 40.3857 83.752 40.7959 84.7949 40.7959C85.7324 40.7959 86.4502 40.585 86.9482 40.1631C87.4521 39.7354 87.7861 38.9941 87.9502 37.9395L89.6465 37.9395ZM91.2725 37.1572C91.2725 36.2256 91.4541 35.3877 91.8174 34.6436C92.1865 33.8994 92.6963 33.3252 93.3467 32.9209C94.0029 32.5166 94.75 32.3145 95.5879 32.3145C96.8828 32.3145 97.9287 32.7627 98.7256 33.6592C99.5283 34.5557 99.9297 35.748 99.9297 37.2363V37.3506C99.9297 38.2764 99.751 39.1084 99.3936 39.8467C99.042 40.5791 98.5352 41.1504 97.873 41.5605C97.2168 41.9707 96.4609 42.1758 95.6055 42.1758C94.3164 42.1758 93.2705 41.7275 92.4678 40.8311C91.6709 39.9346 91.2725 38.748 91.2725 37.2715V37.1572ZM92.9072 37.3506C92.9072 38.4053 93.1504 39.252 93.6367 39.8906C94.1289 40.5293 94.7852 40.8486 95.6055 40.8486C96.4316 40.8486 97.0879 40.5264 97.5742 39.8818C98.0605 39.2314 98.3037 38.3232 98.3037 37.1572C98.3037 36.1143 98.0547 35.2705 97.5566 34.626C97.0645 33.9756 96.4082 33.6504 95.5879 33.6504C94.7852 33.6504 94.1377 33.9697 93.6455 34.6084C93.1533 35.2471 92.9072 36.1611 92.9072 37.3506ZM101.538 37.1572C101.538 36.2256 101.72 35.3877 102.083 34.6436C102.452 33.8994 102.962 33.3252 103.612 32.9209C104.269 32.5166 105.016 32.3145 105.854 32.3145C107.148 32.3145 108.194 32.7627 108.991 33.6592C109.794 34.5557 110.195 35.748 110.195 37.2363V37.3506C110.195 38.2764 110.017 39.1084 109.659 39.8467C109.308 40.5791 108.801 41.1504 108.139 41.5605C107.482 41.9707 106.727 42.1758 105.871 42.1758C104.582 42.1758 103.536 41.7275 102.733 40.8311C101.937 39.9346 101.538 38.748 101.538 37.2715V37.1572ZM103.173 37.3506C103.173 38.4053 103.416 39.252 103.902 39.8906C104.395 40.5293 105.051 40.8486 105.871 40.8486C106.697 40.8486 107.354 40.5264 107.84 39.8818C108.326 39.2314 108.569 38.3232 108.569 37.1572C108.569 36.1143 108.32 35.2705 107.822 34.626C107.33 33.9756 106.674 33.6504 105.854 33.6504C105.051 33.6504 104.403 33.9697 103.911 34.6084C103.419 35.2471 103.173 36.1611 103.173 37.3506ZM114.001 42H112.375V28.5H114.001V42ZM130.744 37.9395C130.586 39.293 130.085 40.3389 129.241 41.0771C128.403 41.8096 127.287 42.1758 125.893 42.1758C124.381 42.1758 123.168 41.6338 122.254 40.5498C121.346 39.4658 120.892 38.0156 120.892 36.1992V34.9688C120.892 33.7793 121.103 32.7334 121.524 31.8311C121.952 30.9287 122.556 30.2373 123.335 29.7568C124.114 29.2705 125.017 29.0273 126.042 29.0273C127.401 29.0273 128.491 29.4082 129.312 30.1699C130.132 30.9258 130.609 31.9746 130.744 33.3164H129.048C128.901 32.2969 128.582 31.5586 128.09 31.1016C127.604 30.6445 126.921 30.416 126.042 30.416C124.964 30.416 124.117 30.8145 123.502 31.6113C122.893 32.4082 122.588 33.542 122.588 35.0127V36.252C122.588 37.6406 122.878 38.7451 123.458 39.5654C124.038 40.3857 124.85 40.7959 125.893 40.7959C126.83 40.7959 127.548 40.585 128.046 40.1631C128.55 39.7354 128.884 38.9941 129.048 37.9395H130.744ZM134.567 42H132.941V28.5H134.567V42ZM138.944 42H137.318V32.4902H138.944V42ZM137.187 29.9678C137.187 29.7041 137.266 29.4814 137.424 29.2998C137.588 29.1182 137.828 29.0273 138.145 29.0273C138.461 29.0273 138.701 29.1182 138.865 29.2998C139.029 29.4814 139.111 29.7041 139.111 29.9678C139.111 30.2314 139.029 30.4512 138.865 30.627C138.701 30.8027 138.461 30.8906 138.145 30.8906C137.828 30.8906 137.588 30.8027 137.424 30.627C137.266 30.4512 137.187 30.2314 137.187 29.9678ZM142.354 42V33.7471H140.852V32.4902H142.354V31.5146C142.354 30.4951 142.627 29.707 143.172 29.1504C143.717 28.5938 144.487 28.3154 145.483 28.3154C145.858 28.3154 146.23 28.3652 146.6 28.4648L146.512 29.7832C146.236 29.7305 145.943 29.7041 145.633 29.7041C145.105 29.7041 144.698 29.8594 144.411 30.1699C144.124 30.4746 143.98 30.9141 143.98 31.4883V32.4902L146.011 32.4902V33.7471L143.98 33.7471V42H142.354ZM148.612 42V33.7471H147.109V32.4902H148.612V31.5146C148.612 30.4951 148.885 29.707 149.43 29.1504C149.975 28.5938 150.745 28.3154 151.741 28.3154C152.116 28.3154 152.488 28.3652 152.857 28.4648L152.77 29.7832C152.494 29.7305 152.201 29.7041 151.891 29.7041C151.363 29.7041 150.956 29.8594 150.669 30.1699C150.382 30.4746 150.238 30.9141 150.238 31.4883V32.4902H152.269V33.7471H150.238V42L148.612 42ZM159.607 39.4775C159.607 39.0381 159.44 38.6982 159.106 38.458C158.778 38.2119 158.201 38.001 157.375 37.8252C156.555 37.6494 155.901 37.4385 155.415 37.1924C154.935 36.9463 154.577 36.6533 154.343 36.3135C154.114 35.9736 154 35.5693 154 35.1006C154 34.3213 154.328 33.6621 154.984 33.123C155.646 32.584 156.49 32.3145 157.516 32.3145C158.594 32.3145 159.467 32.5928 160.135 33.1494C160.809 33.7061 161.146 34.418 161.146 35.2852H159.511C159.511 34.8398 159.32 34.4561 158.939 34.1338C158.564 33.8115 158.09 33.6504 157.516 33.6504C156.924 33.6504 156.461 33.7793 156.127 34.0371C155.793 34.2949 155.626 34.6318 155.626 35.0479C155.626 35.4404 155.781 35.7363 156.092 35.9355C156.402 36.1348 156.962 36.3252 157.771 36.5068C158.585 36.6885 159.244 36.9053 159.748 37.1572C160.252 37.4092 160.624 37.7139 160.864 38.0713C161.11 38.4229 161.233 38.8535 161.233 39.3633C161.233 40.2129 160.894 40.8955 160.214 41.4111C159.534 41.9209 158.652 42.1758 157.568 42.1758C156.807 42.1758 156.133 42.041 155.547 41.7715C154.961 41.502 154.501 41.127 154.167 40.6465C153.839 40.1602 153.675 39.6357 153.675 39.0732H155.301C155.33 39.6182 155.547 40.0518 155.951 40.374C156.361 40.6904 156.9 40.8486 157.568 40.8486C158.184 40.8486 158.676 40.7256 159.045 40.4795C159.42 40.2275 159.607 39.8936 159.607 39.4775Z" fill="white"/>
<path d="M367 35H354.83L360.42 29.41L359 28L351 36L359 44L360.41 42.59L354.83 37H367V35Z" fill="white"/>
</g>
<g filter="url(#filter1_d)">
<circle cx="410" cy="87" r="15" fill="white"/>
</g>
<path fill-rule="evenodd" clip-rule="evenodd" d="M413.4 82.4L412 81L406 87L412 93L413.4 91.6L408.8 87L413.4 82.4Z" fill="#2196F3"/>
<g filter="url(#filter2_d)">
<circle cx="27" cy="227" r="15" fill="#2196F3"/>
</g>
<path fill-rule="evenodd" clip-rule="evenodd" d="M26 220V226H20V228H26V234H28V228H34V226H28V220H26Z" fill="white"/>
<g filter="url(#filter3_d)">
<rect x="12" y="72" width="371" height="128" rx="8" fill="white"/>
</g>
<path d="M316.983 101H315.712V92.5713L313.162 93.5078V92.3594L316.785 90.999H316.983V101ZM327.21 101H320.688V100.091L324.134 96.2627C324.644 95.6839 324.995 95.2145 325.187 94.8545C325.382 94.4899 325.48 94.1139 325.48 93.7266C325.48 93.207 325.323 92.7809 325.009 92.4482C324.694 92.1156 324.275 91.9492 323.751 91.9492C323.122 91.9492 322.632 92.1292 322.281 92.4893C321.935 92.8447 321.762 93.3415 321.762 93.9795H320.497C320.497 93.0635 320.791 92.3229 321.379 91.7578C321.971 91.1927 322.762 90.9102 323.751 90.9102C324.676 90.9102 325.408 91.154 325.945 91.6416C326.483 92.1247 326.752 92.7695 326.752 93.5762C326.752 94.556 326.128 95.7227 324.879 97.0762L322.213 99.9678H327.21V101ZM328.933 101.854H327.846L332.002 91.0469H333.082L328.933 101.854ZM340.561 96.7549C340.561 98.236 340.308 99.3366 339.802 100.057C339.296 100.777 338.505 101.137 337.43 101.137C336.368 101.137 335.582 100.786 335.071 100.084C334.561 99.3776 334.297 98.3249 334.278 96.9258V95.2373C334.278 93.7744 334.531 92.6875 335.037 91.9766C335.543 91.2656 336.336 90.9102 337.416 90.9102C338.487 90.9102 339.275 91.2542 339.781 91.9424C340.287 92.626 340.547 93.6833 340.561 95.1143V96.7549ZM339.296 95.0254C339.296 93.9544 339.146 93.1751 338.845 92.6875C338.544 92.1953 338.068 91.9492 337.416 91.9492C336.769 91.9492 336.297 92.193 336.001 92.6807C335.705 93.1683 335.552 93.918 335.543 94.9297V96.9531C335.543 98.0286 335.698 98.8239 336.008 99.3389C336.322 99.8493 336.796 100.104 337.43 100.104C338.054 100.104 338.517 99.863 338.817 99.3799C339.123 98.8968 339.282 98.1357 339.296 97.0967V95.0254ZM347.144 91.04V92.1133H346.911C345.927 92.1315 345.143 92.4232 344.56 92.9883C343.976 93.5534 343.639 94.3486 343.548 95.374C344.072 94.7725 344.787 94.4717 345.694 94.4717C346.56 94.4717 347.251 94.777 347.766 95.3877C348.285 95.9984 348.545 96.7868 348.545 97.7529C348.545 98.7783 348.265 99.5986 347.704 100.214C347.148 100.829 346.401 101.137 345.462 101.137C344.509 101.137 343.737 100.772 343.145 100.043C342.552 99.3092 342.256 98.3659 342.256 97.2129V96.7275C342.256 94.8955 342.646 93.4964 343.425 92.5303C344.209 91.5596 345.373 91.0628 346.918 91.04H347.144ZM345.482 95.5244C345.049 95.5244 344.651 95.6543 344.286 95.9141C343.922 96.1738 343.669 96.4997 343.527 96.8916V97.3564C343.527 98.1768 343.712 98.8376 344.081 99.3389C344.45 99.8402 344.91 100.091 345.462 100.091C346.032 100.091 346.478 99.8812 346.802 99.4619C347.13 99.0426 347.294 98.4935 347.294 97.8145C347.294 97.1309 347.128 96.5794 346.795 96.1602C346.467 95.7363 346.029 95.5244 345.482 95.5244ZM350.425 101.854H349.338L353.494 91.0469H354.574L350.425 101.854ZM359.968 101H358.696V92.5713L356.146 93.5078V92.3594L359.77 90.999H359.968V101ZM369.709 93.6445C369.709 94.1413 369.577 94.5833 369.312 94.9707C369.053 95.3581 368.7 95.6611 368.253 95.8799C368.772 96.1032 369.183 96.429 369.483 96.8574C369.789 97.2858 369.941 97.7712 369.941 98.3135C369.941 99.1748 369.65 99.8607 369.066 100.371C368.488 100.882 367.724 101.137 366.776 101.137C365.819 101.137 365.051 100.882 364.473 100.371C363.898 99.8561 363.611 99.1702 363.611 98.3135C363.611 97.7757 363.757 97.2904 364.049 96.8574C364.345 96.4245 364.753 96.0964 365.272 95.873C364.83 95.6543 364.482 95.3512 364.227 94.9639C363.971 94.5765 363.844 94.1367 363.844 93.6445C363.844 92.806 364.113 92.1406 364.65 91.6484C365.188 91.1562 365.897 90.9102 366.776 90.9102C367.651 90.9102 368.358 91.1562 368.896 91.6484C369.438 92.1406 369.709 92.806 369.709 93.6445ZM368.677 98.2861C368.677 97.7301 368.499 97.2767 368.144 96.9258C367.793 96.5749 367.332 96.3994 366.763 96.3994C366.193 96.3994 365.735 96.5726 365.389 96.9189C365.047 97.2653 364.876 97.721 364.876 98.2861C364.876 98.8512 365.042 99.2956 365.375 99.6191C365.712 99.9427 366.179 100.104 366.776 100.104C367.369 100.104 367.834 99.9427 368.171 99.6191C368.508 99.291 368.677 98.8467 368.677 98.2861ZM366.776 91.9492C366.28 91.9492 365.876 92.1042 365.566 92.4141C365.261 92.7194 365.108 93.1364 365.108 93.665C365.108 94.1709 365.259 94.5811 365.56 94.8955C365.865 95.2054 366.271 95.3604 366.776 95.3604C367.282 95.3604 367.686 95.2054 367.986 94.8955C368.292 94.5811 368.444 94.1709 368.444 93.665C368.444 93.1592 368.287 92.7467 367.973 92.4277C367.658 92.1087 367.259 91.9492 366.776 91.9492Z" fill="#959BA2"/>
<path d="M29.3252 91.0469H30.6445V98.0947C30.6445 99.0472 30.3574 99.7923 29.7832 100.33C29.2135 100.868 28.4525 101.137 27.5 101.137C26.5111 101.137 25.7409 100.884 25.1895 100.378C24.638 99.8721 24.3623 99.1634 24.3623 98.252H25.6748C25.6748 98.8216 25.8298 99.266 26.1396 99.585C26.4541 99.904 26.9076 100.063 27.5 100.063C28.0423 100.063 28.4798 99.8926 28.8125 99.5508C29.1497 99.209 29.3206 98.7305 29.3252 98.1152V91.0469ZM37.248 101C37.1751 100.854 37.1159 100.594 37.0703 100.221C36.4824 100.831 35.7806 101.137 34.9648 101.137C34.2357 101.137 33.6364 100.932 33.167 100.521C32.7021 100.107 32.4697 99.5827 32.4697 98.9492C32.4697 98.179 32.7614 97.582 33.3447 97.1582C33.9326 96.7298 34.7575 96.5156 35.8193 96.5156H37.0498V95.9346C37.0498 95.4925 36.9176 95.1416 36.6533 94.8818C36.389 94.6175 35.9993 94.4854 35.4844 94.4854C35.0332 94.4854 34.6549 94.5993 34.3496 94.8271C34.0443 95.055 33.8916 95.3307 33.8916 95.6543H32.6201C32.6201 95.2852 32.75 94.9297 33.0098 94.5879C33.2741 94.2415 33.6296 93.9681 34.0762 93.7676C34.5273 93.5671 35.0218 93.4668 35.5596 93.4668C36.4118 93.4668 37.0794 93.681 37.5625 94.1094C38.0456 94.5332 38.2962 95.1188 38.3145 95.8662V99.2705C38.3145 99.9495 38.401 100.49 38.5742 100.891V101H37.248ZM35.1494 100.036C35.5459 100.036 35.9219 99.9336 36.2773 99.7285C36.6328 99.5234 36.8903 99.2568 37.0498 98.9287V97.4111H36.0586C34.5091 97.4111 33.7344 97.8646 33.7344 98.7715C33.7344 99.168 33.8665 99.4779 34.1309 99.7012C34.3952 99.9245 34.7347 100.036 35.1494 100.036ZM41.4932 93.6035L41.5342 94.5332C42.0993 93.8223 42.8376 93.4668 43.749 93.4668C45.3122 93.4668 46.1006 94.3486 46.1143 96.1123V101H44.8496V96.1055C44.8451 95.5723 44.722 95.1781 44.4805 94.9229C44.2435 94.6676 43.8721 94.54 43.3662 94.54C42.9561 94.54 42.596 94.6494 42.2861 94.8682C41.9762 95.0869 41.7347 95.374 41.5615 95.7295V101H40.2969V93.6035H41.4932ZM51.0908 101.137C50.0882 101.137 49.2725 100.809 48.6436 100.152C48.0146 99.4915 47.7002 98.6097 47.7002 97.5068V97.2744C47.7002 96.5407 47.8392 95.8867 48.1172 95.3125C48.3997 94.7337 48.7917 94.2826 49.293 93.959C49.7988 93.6309 50.3457 93.4668 50.9336 93.4668C51.8952 93.4668 52.6426 93.7835 53.1758 94.417C53.709 95.0505 53.9756 95.9574 53.9756 97.1377V97.6641H48.9648C48.9831 98.3932 49.195 98.9834 49.6006 99.4346C50.0107 99.8812 50.5303 100.104 51.1592 100.104C51.6058 100.104 51.984 100.013 52.2939 99.8311C52.6038 99.6488 52.875 99.4072 53.1074 99.1064L53.8799 99.708C53.2601 100.66 52.3304 101.137 51.0908 101.137ZM50.9336 94.5059C50.4232 94.5059 49.9948 94.6927 49.6484 95.0664C49.3021 95.4355 49.0879 95.9551 49.0059 96.625H52.7109V96.5293C52.6745 95.8867 52.5013 95.39 52.1914 95.0391C51.8815 94.6836 51.4622 94.5059 50.9336 94.5059Z" fill="#959BA2"/>
<path d="M27.5391 124.93L27.8906 126.695L28.3203 125.008L30.7891 116.625H31.6562L34.0938 125.008L34.5156 126.711L34.8906 124.93L36.9453 116.625H37.9297L35.0156 128H34.0938L31.5156 119.102L31.2266 117.977L30.9453 119.102L28.3047 128H27.3828L24.4766 116.625H25.4609L27.5391 124.93ZM44.6328 128C44.5391 127.734 44.4792 127.341 44.4531 126.82C44.125 127.247 43.7057 127.578 43.1953 127.812C42.6901 128.042 42.1536 128.156 41.5859 128.156C40.7734 128.156 40.1146 127.93 39.6094 127.477C39.1094 127.023 38.8594 126.451 38.8594 125.758C38.8594 124.935 39.2005 124.284 39.8828 123.805C40.5703 123.326 41.526 123.086 42.75 123.086H44.4453V122.125C44.4453 121.521 44.2578 121.047 43.8828 120.703C43.513 120.354 42.9714 120.18 42.2578 120.18C41.6068 120.18 41.0677 120.346 40.6406 120.68C40.2135 121.013 40 121.414 40 121.883L39.0625 121.875C39.0625 121.203 39.375 120.622 40 120.133C40.625 119.638 41.3932 119.391 42.3047 119.391C43.2474 119.391 43.9896 119.628 44.5312 120.102C45.0781 120.57 45.3594 121.227 45.375 122.07V126.07C45.375 126.888 45.4609 127.5 45.6328 127.906V128H44.6328ZM41.6953 127.328C42.3203 127.328 42.8776 127.177 43.3672 126.875C43.862 126.573 44.2214 126.169 44.4453 125.664V123.805H42.7734C41.8411 123.815 41.112 123.987 40.5859 124.32C40.0599 124.648 39.7969 125.102 39.7969 125.68C39.7969 126.154 39.9714 126.547 40.3203 126.859C40.6745 127.172 41.1328 127.328 41.6953 127.328ZM49.3281 117.383V119.547H51.0781V120.312H49.3281V125.945C49.3281 126.414 49.4115 126.763 49.5781 126.992C49.75 127.221 50.0339 127.336 50.4297 127.336C50.5859 127.336 50.8385 127.31 51.1875 127.258L51.2266 128.023C50.9818 128.112 50.6484 128.156 50.2266 128.156C49.5859 128.156 49.1198 127.971 48.8281 127.602C48.5365 127.227 48.3906 126.677 48.3906 125.953V120.312H46.8359V119.547H48.3906V117.383H49.3281ZM56.1406 127.367C56.7917 127.367 57.3359 127.185 57.7734 126.82C58.2161 126.451 58.4557 125.974 58.4922 125.391H59.3906C59.3646 125.906 59.2031 126.378 58.9062 126.805C58.6094 127.227 58.2135 127.557 57.7188 127.797C57.2292 128.036 56.7031 128.156 56.1406 128.156C55.0312 128.156 54.151 127.771 53.5 127C52.8542 126.229 52.5312 125.193 52.5312 123.891V123.609C52.5312 122.776 52.6771 122.039 52.9688 121.398C53.2604 120.758 53.6771 120.263 54.2188 119.914C54.7656 119.565 55.4036 119.391 56.1328 119.391C57.0599 119.391 57.8229 119.667 58.4219 120.219C59.026 120.771 59.349 121.497 59.3906 122.398H58.4922C58.4505 121.737 58.2109 121.203 57.7734 120.797C57.3411 120.391 56.7943 120.188 56.1328 120.188C55.2891 120.188 54.6328 120.492 54.1641 121.102C53.7005 121.711 53.4688 122.565 53.4688 123.664V123.938C53.4688 125.016 53.7005 125.857 54.1641 126.461C54.6328 127.065 55.2917 127.367 56.1406 127.367ZM62.1953 120.977C62.5026 120.471 62.8958 120.081 63.375 119.805C63.8542 119.529 64.3776 119.391 64.9453 119.391C65.8516 119.391 66.526 119.646 66.9688 120.156C67.4115 120.667 67.6354 121.432 67.6406 122.453V128H66.7109V122.445C66.7057 121.69 66.5443 121.128 66.2266 120.758C65.9141 120.388 65.4115 120.203 64.7188 120.203C64.1406 120.203 63.6276 120.385 63.1797 120.75C62.737 121.109 62.4089 121.596 62.1953 122.211V128H61.2656V116H62.1953V120.977ZM73.3203 128.156C72.6016 128.156 71.9505 127.979 71.3672 127.625C70.7891 127.271 70.3385 126.779 70.0156 126.148C69.6927 125.513 69.5312 124.802 69.5312 124.016V123.68C69.5312 122.867 69.6875 122.135 70 121.484C70.3177 120.833 70.7578 120.323 71.3203 119.953C71.8828 119.578 72.4922 119.391 73.1484 119.391C74.1745 119.391 74.987 119.742 75.5859 120.445C76.1901 121.143 76.4922 122.099 76.4922 123.312V123.836H70.4609V124.016C70.4609 124.974 70.7344 125.773 71.2812 126.414C71.8333 127.049 72.526 127.367 73.3594 127.367C73.8594 127.367 74.2995 127.276 74.6797 127.094C75.0651 126.911 75.4141 126.62 75.7266 126.219L76.3125 126.664C75.625 127.659 74.6276 128.156 73.3203 128.156ZM73.1484 120.188C72.4453 120.188 71.8516 120.445 71.3672 120.961C70.888 121.477 70.5964 122.169 70.4922 123.039H75.5625V122.938C75.5365 122.125 75.3047 121.464 74.8672 120.953C74.4297 120.443 73.8568 120.188 73.1484 120.188ZM77.9375 123.695C77.9375 122.383 78.2292 121.339 78.8125 120.562C79.401 119.781 80.1979 119.391 81.2031 119.391C82.3438 119.391 83.2135 119.841 83.8125 120.742V116H84.7422V128H83.8672L83.8281 126.875C83.2292 127.729 82.349 128.156 81.1875 128.156C80.2135 128.156 79.4271 127.766 78.8281 126.984C78.2344 126.198 77.9375 125.138 77.9375 123.805V123.695ZM78.8828 123.859C78.8828 124.938 79.099 125.789 79.5312 126.414C79.9635 127.034 80.5729 127.344 81.3594 127.344C82.5104 127.344 83.3281 126.836 83.8125 125.82V121.852C83.3281 120.753 82.5156 120.203 81.375 120.203C80.5885 120.203 79.9766 120.513 79.5391 121.133C79.1016 121.747 78.8828 122.656 78.8828 123.859ZM92.5469 117.383V119.547H94.2969V120.312H92.5469V125.945C92.5469 126.414 92.6302 126.763 92.7969 126.992C92.9688 127.221 93.2526 127.336 93.6484 127.336C93.8047 127.336 94.0573 127.31 94.4062 127.258L94.4453 128.023C94.2005 128.112 93.8672 128.156 93.4453 128.156C92.8047 128.156 92.3385 127.971 92.0469 127.602C91.7552 127.227 91.6094 126.677 91.6094 125.953V120.312H90.0547V119.547H91.6094V117.383H92.5469ZM97.1641 120.977C97.4714 120.471 97.8646 120.081 98.3438 119.805C98.8229 119.529 99.3464 119.391 99.9141 119.391C100.82 119.391 101.495 119.646 101.938 120.156C102.38 120.667 102.604 121.432 102.609 122.453V128H101.68V122.445C101.674 121.69 101.513 121.128 101.195 120.758C100.883 120.388 100.38 120.203 99.6875 120.203C99.1094 120.203 98.5964 120.385 98.1484 120.75C97.7057 121.109 97.3776 121.596 97.1641 122.211V128H96.2344V116H97.1641V120.977ZM108.289 128.156C107.57 128.156 106.919 127.979 106.336 127.625C105.758 127.271 105.307 126.779 104.984 126.148C104.661 125.513 104.5 124.802 104.5 124.016V123.68C104.5 122.867 104.656 122.135 104.969 121.484C105.286 120.833 105.727 120.323 106.289 119.953C106.852 119.578 107.461 119.391 108.117 119.391C109.143 119.391 109.956 119.742 110.555 120.445C111.159 121.143 111.461 122.099 111.461 123.312V123.836H105.43V124.016C105.43 124.974 105.703 125.773 106.25 126.414C106.802 127.049 107.495 127.367 108.328 127.367C108.828 127.367 109.268 127.276 109.648 127.094C110.034 126.911 110.383 126.62 110.695 126.219L111.281 126.664C110.594 127.659 109.596 128.156 108.289 128.156ZM108.117 120.188C107.414 120.188 106.82 120.445 106.336 120.961C105.857 121.477 105.565 122.169 105.461 123.039H110.531V122.938C110.505 122.125 110.273 121.464 109.836 120.953C109.398 120.443 108.826 120.188 108.117 120.188ZM122.234 125.852C122.234 125.388 122.047 125.016 121.672 124.734C121.302 124.453 120.742 124.234 119.992 124.078C119.242 123.917 118.659 123.734 118.242 123.531C117.831 123.323 117.523 123.07 117.32 122.773C117.122 122.477 117.023 122.117 117.023 121.695C117.023 121.029 117.302 120.479 117.859 120.047C118.417 119.609 119.13 119.391 120 119.391C120.943 119.391 121.698 119.625 122.266 120.094C122.839 120.557 123.125 121.164 123.125 121.914H122.188C122.188 121.419 121.979 121.008 121.562 120.68C121.151 120.352 120.63 120.188 120 120.188C119.385 120.188 118.891 120.326 118.516 120.602C118.146 120.872 117.961 121.227 117.961 121.664C117.961 122.086 118.115 122.414 118.422 122.648C118.734 122.878 119.299 123.089 120.117 123.281C120.94 123.474 121.555 123.68 121.961 123.898C122.372 124.117 122.677 124.38 122.875 124.688C123.073 124.995 123.172 125.367 123.172 125.805C123.172 126.518 122.883 127.089 122.305 127.516C121.732 127.943 120.982 128.156 120.055 128.156C119.07 128.156 118.271 127.919 117.656 127.445C117.047 126.966 116.742 126.362 116.742 125.633H117.68C117.716 126.18 117.945 126.607 118.367 126.914C118.794 127.216 119.357 127.367 120.055 127.367C120.706 127.367 121.232 127.224 121.633 126.938C122.034 126.651 122.234 126.289 122.234 125.852ZM130.719 126.93C130.156 127.747 129.258 128.156 128.023 128.156C127.122 128.156 126.438 127.896 125.969 127.375C125.5 126.849 125.26 126.073 125.25 125.047V119.547H126.18V124.93C126.18 126.539 126.831 127.344 128.133 127.344C129.487 127.344 130.344 126.784 130.703 125.664V119.547H131.641V128H130.734L130.719 126.93ZM134.969 119.547L135 120.992C135.318 120.471 135.714 120.076 136.188 119.805C136.661 119.529 137.185 119.391 137.758 119.391C138.664 119.391 139.339 119.646 139.781 120.156C140.224 120.667 140.448 121.432 140.453 122.453V128H139.523V122.445C139.518 121.69 139.357 121.128 139.039 120.758C138.727 120.388 138.224 120.203 137.531 120.203C136.953 120.203 136.44 120.385 135.992 120.75C135.549 121.109 135.221 121.596 135.008 122.211V128H134.078V119.547H134.969ZM147.938 125.852C147.938 125.388 147.75 125.016 147.375 124.734C147.005 124.453 146.445 124.234 145.695 124.078C144.945 123.917 144.362 123.734 143.945 123.531C143.534 123.323 143.227 123.07 143.023 122.773C142.826 122.477 142.727 122.117 142.727 121.695C142.727 121.029 143.005 120.479 143.562 120.047C144.12 119.609 144.833 119.391 145.703 119.391C146.646 119.391 147.401 119.625 147.969 120.094C148.542 120.557 148.828 121.164 148.828 121.914H147.891C147.891 121.419 147.682 121.008 147.266 120.68C146.854 120.352 146.333 120.188 145.703 120.188C145.089 120.188 144.594 120.326 144.219 120.602C143.849 120.872 143.664 121.227 143.664 121.664C143.664 122.086 143.818 122.414 144.125 122.648C144.438 122.878 145.003 123.089 145.82 123.281C146.643 123.474 147.258 123.68 147.664 123.898C148.076 124.117 148.38 124.38 148.578 124.688C148.776 124.995 148.875 125.367 148.875 125.805C148.875 126.518 148.586 127.089 148.008 127.516C147.435 127.943 146.685 128.156 145.758 128.156C144.773 128.156 143.974 127.919 143.359 127.445C142.75 126.966 142.445 126.362 142.445 125.633H143.383C143.419 126.18 143.648 126.607 144.07 126.914C144.497 127.216 145.06 127.367 145.758 127.367C146.409 127.367 146.935 127.224 147.336 126.938C147.737 126.651 147.938 126.289 147.938 125.852ZM154.258 128.156C153.539 128.156 152.888 127.979 152.305 127.625C151.727 127.271 151.276 126.779 150.953 126.148C150.63 125.513 150.469 124.802 150.469 124.016V123.68C150.469 122.867 150.625 122.135 150.938 121.484C151.255 120.833 151.695 120.323 152.258 119.953C152.82 119.578 153.43 119.391 154.086 119.391C155.112 119.391 155.924 119.742 156.523 120.445C157.128 121.143 157.43 122.099 157.43 123.312V123.836H151.398V124.016C151.398 124.974 151.672 125.773 152.219 126.414C152.771 127.049 153.464 127.367 154.297 127.367C154.797 127.367 155.237 127.276 155.617 127.094C156.003 126.911 156.352 126.62 156.664 126.219L157.25 126.664C156.562 127.659 155.565 128.156 154.258 128.156ZM154.086 120.188C153.383 120.188 152.789 120.445 152.305 120.961C151.826 121.477 151.534 122.169 151.43 123.039H156.5V122.938C156.474 122.125 156.242 121.464 155.805 120.953C155.367 120.443 154.794 120.188 154.086 120.188ZM160.703 117.383V119.547H162.453V120.312H160.703V125.945C160.703 126.414 160.786 126.763 160.953 126.992C161.125 127.221 161.409 127.336 161.805 127.336C161.961 127.336 162.214 127.31 162.562 127.258L162.602 128.023C162.357 128.112 162.023 128.156 161.602 128.156C160.961 128.156 160.495 127.971 160.203 127.602C159.911 127.227 159.766 126.677 159.766 125.953V120.312H158.211V119.547H159.766V117.383H160.703ZM169.211 120.977C169.518 120.471 169.911 120.081 170.391 119.805C170.87 119.529 171.393 119.391 171.961 119.391C172.867 119.391 173.542 119.646 173.984 120.156C174.427 120.667 174.651 121.432 174.656 122.453V128H173.727V122.445C173.721 121.69 173.56 121.128 173.242 120.758C172.93 120.388 172.427 120.203 171.734 120.203C171.156 120.203 170.643 120.385 170.195 120.75C169.753 121.109 169.424 121.596 169.211 122.211V128H168.281V116H169.211V120.977ZM180.336 128.156C179.617 128.156 178.966 127.979 178.383 127.625C177.805 127.271 177.354 126.779 177.031 126.148C176.708 125.513 176.547 124.802 176.547 124.016V123.68C176.547 122.867 176.703 122.135 177.016 121.484C177.333 120.833 177.773 120.323 178.336 119.953C178.898 119.578 179.508 119.391 180.164 119.391C181.19 119.391 182.003 119.742 182.602 120.445C183.206 121.143 183.508 122.099 183.508 123.312V123.836H177.477V124.016C177.477 124.974 177.75 125.773 178.297 126.414C178.849 127.049 179.542 127.367 180.375 127.367C180.875 127.367 181.315 127.276 181.695 127.094C182.081 126.911 182.43 126.62 182.742 126.219L183.328 126.664C182.641 127.659 181.643 128.156 180.336 128.156ZM180.164 120.188C179.461 120.188 178.867 120.445 178.383 120.961C177.904 121.477 177.612 122.169 177.508 123.039H182.578V122.938C182.552 122.125 182.32 121.464 181.883 120.953C181.445 120.443 180.872 120.188 180.164 120.188ZM189.234 120.344C189.036 120.307 188.826 120.289 188.602 120.289C188.018 120.289 187.523 120.453 187.117 120.781C186.716 121.104 186.43 121.576 186.258 122.195V128H185.328V119.547H186.242L186.258 120.891C186.753 119.891 187.547 119.391 188.641 119.391C188.901 119.391 189.107 119.424 189.258 119.492L189.234 120.344ZM193.836 128.156C193.117 128.156 192.466 127.979 191.883 127.625C191.305 127.271 190.854 126.779 190.531 126.148C190.208 125.513 190.047 124.802 190.047 124.016V123.68C190.047 122.867 190.203 122.135 190.516 121.484C190.833 120.833 191.273 120.323 191.836 119.953C192.398 119.578 193.008 119.391 193.664 119.391C194.69 119.391 195.503 119.742 196.102 120.445C196.706 121.143 197.008 122.099 197.008 123.312V123.836H190.977V124.016C190.977 124.974 191.25 125.773 191.797 126.414C192.349 127.049 193.042 127.367 193.875 127.367C194.375 127.367 194.815 127.276 195.195 127.094C195.581 126.911 195.93 126.62 196.242 126.219L196.828 126.664C196.141 127.659 195.143 128.156 193.836 128.156ZM193.664 120.188C192.961 120.188 192.367 120.445 191.883 120.961C191.404 121.477 191.112 122.169 191.008 123.039H196.078V122.938C196.052 122.125 195.82 121.464 195.383 120.953C194.945 120.443 194.372 120.188 193.664 120.188ZM204.742 126.055L204.883 126.781L205.07 126.016L207.102 119.547H207.898L209.906 125.961L210.125 126.852L210.305 126.031L212.039 119.547H213.008L210.547 128H209.75L207.578 121.297L207.477 120.836L207.375 121.305L205.242 128H204.445L201.992 119.547H202.953L204.742 126.055ZM215.828 128H214.891V119.547H215.828V128ZM214.727 117.102C214.727 116.924 214.784 116.776 214.898 116.656C215.013 116.531 215.169 116.469 215.367 116.469C215.565 116.469 215.721 116.531 215.836 116.656C215.956 116.776 216.016 116.924 216.016 117.102C216.016 117.279 215.956 117.427 215.836 117.547C215.721 117.667 215.565 117.727 215.367 117.727C215.169 117.727 215.013 117.667 214.898 117.547C214.784 117.427 214.727 117.279 214.727 117.102ZM219.828 117.383V119.547H221.578V120.312H219.828V125.945C219.828 126.414 219.911 126.763 220.078 126.992C220.25 127.221 220.534 127.336 220.93 127.336C221.086 127.336 221.339 127.31 221.688 127.258L221.727 128.023C221.482 128.112 221.148 128.156 220.727 128.156C220.086 128.156 219.62 127.971 219.328 127.602C219.036 127.227 218.891 126.677 218.891 125.953V120.312H217.336V119.547H218.891V117.383H219.828ZM224.445 120.977C224.753 120.471 225.146 120.081 225.625 119.805C226.104 119.529 226.628 119.391 227.195 119.391C228.102 119.391 228.776 119.646 229.219 120.156C229.661 120.667 229.885 121.432 229.891 122.453V128H228.961V122.445C228.956 121.69 228.794 121.128 228.477 120.758C228.164 120.388 227.661 120.203 226.969 120.203C226.391 120.203 225.878 120.385 225.43 120.75C224.987 121.109 224.659 121.596 224.445 122.211V128H223.516V116H224.445V120.977ZM237.039 119.547L237.07 120.922C237.383 120.411 237.773 120.029 238.242 119.773C238.711 119.518 239.232 119.391 239.805 119.391C241.138 119.391 241.984 119.938 242.344 121.031C242.646 120.505 243.049 120.102 243.555 119.82C244.06 119.534 244.617 119.391 245.227 119.391C247.039 119.391 247.964 120.38 248 122.359V128H247.062V122.43C247.057 121.674 246.893 121.115 246.57 120.75C246.253 120.385 245.732 120.203 245.008 120.203C244.336 120.214 243.768 120.432 243.305 120.859C242.841 121.281 242.583 121.797 242.531 122.406V128H241.594V122.359C241.589 121.635 241.417 121.096 241.078 120.742C240.745 120.383 240.229 120.203 239.531 120.203C238.943 120.203 238.438 120.372 238.016 120.711C237.594 121.044 237.281 121.542 237.078 122.203V128H236.141V119.547H237.039ZM253.055 126.656L255.523 119.547H256.531L252.922 129.438L252.734 129.875C252.271 130.901 251.555 131.414 250.586 131.414C250.362 131.414 250.122 131.378 249.867 131.305L249.859 130.531L250.344 130.578C250.802 130.578 251.172 130.464 251.453 130.234C251.74 130.01 251.982 129.622 252.18 129.07L252.594 127.93L249.406 119.547H250.43L253.055 126.656ZM262.547 128V120.312H261.148V119.547H262.547V118.523C262.547 117.659 262.766 116.995 263.203 116.531C263.646 116.068 264.26 115.836 265.047 115.836C265.401 115.836 265.732 115.88 266.039 115.969L265.969 116.75C265.708 116.688 265.424 116.656 265.117 116.656C264.602 116.656 264.201 116.818 263.914 117.141C263.628 117.458 263.484 117.911 263.484 118.5V119.547H265.5V120.312H263.484V128H262.547ZM271.078 120.344C270.88 120.307 270.669 120.289 270.445 120.289C269.862 120.289 269.367 120.453 268.961 120.781C268.56 121.104 268.273 121.576 268.102 122.195V128H267.172V119.547H268.086L268.102 120.891C268.596 119.891 269.391 119.391 270.484 119.391C270.745 119.391 270.951 119.424 271.102 119.492L271.078 120.344ZM273.609 128H272.672V119.547H273.609V128ZM272.508 117.102C272.508 116.924 272.565 116.776 272.68 116.656C272.794 116.531 272.951 116.469 273.148 116.469C273.346 116.469 273.503 116.531 273.617 116.656C273.737 116.776 273.797 116.924 273.797 117.102C273.797 117.279 273.737 117.427 273.617 117.547C273.503 117.667 273.346 117.727 273.148 117.727C272.951 117.727 272.794 117.667 272.68 117.547C272.565 117.427 272.508 117.279 272.508 117.102ZM279.43 128.156C278.711 128.156 278.06 127.979 277.477 127.625C276.898 127.271 276.448 126.779 276.125 126.148C275.802 125.513 275.641 124.802 275.641 124.016V123.68C275.641 122.867 275.797 122.135 276.109 121.484C276.427 120.833 276.867 120.323 277.43 119.953C277.992 119.578 278.602 119.391 279.258 119.391C280.284 119.391 281.096 119.742 281.695 120.445C282.299 121.143 282.602 122.099 282.602 123.312V123.836H276.57V124.016C276.57 124.974 276.844 125.773 277.391 126.414C277.943 127.049 278.635 127.367 279.469 127.367C279.969 127.367 280.409 127.276 280.789 127.094C281.174 126.911 281.523 126.62 281.836 126.219L282.422 126.664C281.734 127.659 280.737 128.156 279.43 128.156ZM279.258 120.188C278.555 120.188 277.961 120.445 277.477 120.961C276.997 121.477 276.706 122.169 276.602 123.039H281.672V122.938C281.646 122.125 281.414 121.464 280.977 120.953C280.539 120.443 279.966 120.188 279.258 120.188ZM285.312 119.547L285.344 120.992C285.661 120.471 286.057 120.076 286.531 119.805C287.005 119.529 287.529 119.391 288.102 119.391C289.008 119.391 289.682 119.646 290.125 120.156C290.568 120.667 290.792 121.432 290.797 122.453V128H289.867V122.445C289.862 121.69 289.701 121.128 289.383 120.758C289.07 120.388 288.568 120.203 287.875 120.203C287.297 120.203 286.784 120.385 286.336 120.75C285.893 121.109 285.565 121.596 285.352 122.211V128H284.422V119.547H285.312ZM292.844 123.695C292.844 122.383 293.135 121.339 293.719 120.562C294.307 119.781 295.104 119.391 296.109 119.391C297.25 119.391 298.12 119.841 298.719 120.742V116H299.648V128H298.773L298.734 126.875C298.135 127.729 297.255 128.156 296.094 128.156C295.12 128.156 294.333 127.766 293.734 126.984C293.141 126.198 292.844 125.138 292.844 123.805V123.695ZM293.789 123.859C293.789 124.938 294.005 125.789 294.438 126.414C294.87 127.034 295.479 127.344 296.266 127.344C297.417 127.344 298.234 126.836 298.719 125.82V121.852C298.234 120.753 297.422 120.203 296.281 120.203C295.495 120.203 294.883 120.513 294.445 121.133C294.008 121.747 293.789 122.656 293.789 123.859ZM307.172 125.852C307.172 125.388 306.984 125.016 306.609 124.734C306.24 124.453 305.68 124.234 304.93 124.078C304.18 123.917 303.596 123.734 303.18 123.531C302.768 123.323 302.461 123.07 302.258 122.773C302.06 122.477 301.961 122.117 301.961 121.695C301.961 121.029 302.24 120.479 302.797 120.047C303.354 119.609 304.068 119.391 304.938 119.391C305.88 119.391 306.635 119.625 307.203 120.094C307.776 120.557 308.062 121.164 308.062 121.914H307.125C307.125 121.419 306.917 121.008 306.5 120.68C306.089 120.352 305.568 120.188 304.938 120.188C304.323 120.188 303.828 120.326 303.453 120.602C303.083 120.872 302.898 121.227 302.898 121.664C302.898 122.086 303.052 122.414 303.359 122.648C303.672 122.878 304.237 123.089 305.055 123.281C305.878 123.474 306.492 123.68 306.898 123.898C307.31 124.117 307.615 124.38 307.812 124.688C308.01 124.995 308.109 125.367 308.109 125.805C308.109 126.518 307.82 127.089 307.242 127.516C306.669 127.943 305.919 128.156 304.992 128.156C304.008 128.156 303.208 127.919 302.594 127.445C301.984 126.966 301.68 126.362 301.68 125.633H302.617C302.654 126.18 302.883 126.607 303.305 126.914C303.732 127.216 304.294 127.367 304.992 127.367C305.643 127.367 306.169 127.224 306.57 126.938C306.971 126.651 307.172 126.289 307.172 125.852ZM311.219 124.836H310.352L310.305 116.625H311.273L311.219 124.836ZM310.195 127.453C310.195 127.276 310.253 127.128 310.367 127.008C310.482 126.883 310.638 126.82 310.836 126.82C311.034 126.82 311.19 126.883 311.305 127.008C311.424 127.128 311.484 127.276 311.484 127.453C311.484 127.625 311.424 127.771 311.305 127.891C311.19 128.005 311.034 128.062 310.836 128.062C310.638 128.062 310.482 128.005 310.367 127.891C310.253 127.771 310.195 127.625 310.195 127.453ZM317.938 128V116.625H321.297C322.516 116.625 323.44 116.878 324.07 117.383C324.701 117.883 325.016 118.622 325.016 119.602C325.016 120.19 324.854 120.703 324.531 121.141C324.214 121.573 323.776 121.883 323.219 122.07C323.88 122.216 324.411 122.542 324.812 123.047C325.219 123.552 325.422 124.135 325.422 124.797C325.422 125.802 325.096 126.589 324.445 127.156C323.799 127.719 322.898 128 321.742 128H317.938ZM318.898 122.531V127.188H321.781C322.604 127.188 323.255 126.979 323.734 126.562C324.219 126.141 324.461 125.557 324.461 124.812C324.461 124.109 324.229 123.555 323.766 123.148C323.307 122.737 322.672 122.531 321.859 122.531H318.898ZM318.898 121.727H321.523C322.326 121.711 322.945 121.523 323.383 121.164C323.826 120.799 324.047 120.271 324.047 119.578C324.047 118.849 323.818 118.312 323.359 117.969C322.906 117.62 322.219 117.445 321.297 117.445H318.898V121.727ZM330.805 128.156C330.086 128.156 329.435 127.979 328.852 127.625C328.273 127.271 327.823 126.779 327.5 126.148C327.177 125.513 327.016 124.802 327.016 124.016V123.68C327.016 122.867 327.172 122.135 327.484 121.484C327.802 120.833 328.242 120.323 328.805 119.953C329.367 119.578 329.977 119.391 330.633 119.391C331.659 119.391 332.471 119.742 333.07 120.445C333.674 121.143 333.977 122.099 333.977 123.312V123.836H327.945V124.016C327.945 124.974 328.219 125.773 328.766 126.414C329.318 127.049 330.01 127.367 330.844 127.367C331.344 127.367 331.784 127.276 332.164 127.094C332.549 126.911 332.898 126.62 333.211 126.219L333.797 126.664C333.109 127.659 332.112 128.156 330.805 128.156ZM330.633 120.188C329.93 120.188 329.336 120.445 328.852 120.961C328.372 121.477 328.081 122.169 327.977 123.039H333.047V122.938C333.021 122.125 332.789 121.464 332.352 120.953C331.914 120.443 331.341 120.188 330.633 120.188ZM340.859 125.852C340.859 125.388 340.672 125.016 340.297 124.734C339.927 124.453 339.367 124.234 338.617 124.078C337.867 123.917 337.284 123.734 336.867 123.531C336.456 123.323 336.148 123.07 335.945 122.773C335.747 122.477 335.648 122.117 335.648 121.695C335.648 121.029 335.927 120.479 336.484 120.047C337.042 119.609 337.755 119.391 338.625 119.391C339.568 119.391 340.323 119.625 340.891 120.094C341.464 120.557 341.75 121.164 341.75 121.914H340.812C340.812 121.419 340.604 121.008 340.188 120.68C339.776 120.352 339.255 120.188 338.625 120.188C338.01 120.188 337.516 120.326 337.141 120.602C336.771 120.872 336.586 121.227 336.586 121.664C336.586 122.086 336.74 122.414 337.047 122.648C337.359 122.878 337.924 123.089 338.742 123.281C339.565 123.474 340.18 123.68 340.586 123.898C340.997 124.117 341.302 124.38 341.5 124.688C341.698 124.995 341.797 125.367 341.797 125.805C341.797 126.518 341.508 127.089 340.93 127.516C340.357 127.943 339.607 128.156 338.68 128.156C337.695 128.156 336.896 127.919 336.281 127.445C335.672 126.966 335.367 126.362 335.367 125.633H336.305C336.341 126.18 336.57 126.607 336.992 126.914C337.419 127.216 337.982 127.367 338.68 127.367C339.331 127.367 339.857 127.224 340.258 126.938C340.659 126.651 340.859 126.289 340.859 125.852ZM345.359 117.383V119.547H347.109V120.312H345.359V125.945C345.359 126.414 345.443 126.763 345.609 126.992C345.781 127.221 346.065 127.336 346.461 127.336C346.617 127.336 346.87 127.31 347.219 127.258L347.258 128.023C347.013 128.112 346.68 128.156 346.258 128.156C345.617 128.156 345.151 127.971 344.859 127.602C344.568 127.227 344.422 126.677 344.422 125.953V120.312H342.867V119.547H344.422V117.383H345.359ZM30.2812 144.852C30.2812 144.388 30.0938 144.016 29.7188 143.734C29.349 143.453 28.7891 143.234 28.0391 143.078C27.2891 142.917 26.7057 142.734 26.2891 142.531C25.8776 142.323 25.5703 142.07 25.3672 141.773C25.1693 141.477 25.0703 141.117 25.0703 140.695C25.0703 140.029 25.349 139.479 25.9062 139.047C26.4635 138.609 27.1771 138.391 28.0469 138.391C28.9896 138.391 29.7448 138.625 30.3125 139.094C30.8854 139.557 31.1719 140.164 31.1719 140.914H30.2344C30.2344 140.419 30.026 140.008 29.6094 139.68C29.1979 139.352 28.6771 139.188 28.0469 139.188C27.4323 139.188 26.9375 139.326 26.5625 139.602C26.1927 139.872 26.0078 140.227 26.0078 140.664C26.0078 141.086 26.1615 141.414 26.4688 141.648C26.7812 141.878 27.3464 142.089 28.1641 142.281C28.987 142.474 29.6016 142.68 30.0078 142.898C30.4193 143.117 30.724 143.38 30.9219 143.688C31.1198 143.995 31.2188 144.367 31.2188 144.805C31.2188 145.518 30.9297 146.089 30.3516 146.516C29.7786 146.943 29.0286 147.156 28.1016 147.156C27.1172 147.156 26.3177 146.919 25.7031 146.445C25.0938 145.966 24.7891 145.362 24.7891 144.633H25.7266C25.763 145.18 25.9922 145.607 26.4141 145.914C26.8411 146.216 27.4036 146.367 28.1016 146.367C28.7526 146.367 29.2786 146.224 29.6797 145.938C30.0807 145.651 30.2812 145.289 30.2812 144.852ZM38.7656 145.93C38.2031 146.747 37.3047 147.156 36.0703 147.156C35.1693 147.156 34.4844 146.896 34.0156 146.375C33.5469 145.849 33.3073 145.073 33.2969 144.047V138.547H34.2266V143.93C34.2266 145.539 34.8776 146.344 36.1797 146.344C37.5339 146.344 38.3906 145.784 38.75 144.664V138.547H39.6875V147H38.7812L38.7656 145.93ZM42.9766 138.547L43.0078 139.922C43.3203 139.411 43.7109 139.029 44.1797 138.773C44.6484 138.518 45.1693 138.391 45.7422 138.391C47.0755 138.391 47.9219 138.938 48.2812 140.031C48.5833 139.505 48.987 139.102 49.4922 138.82C49.9974 138.534 50.5547 138.391 51.1641 138.391C52.9766 138.391 53.901 139.38 53.9375 141.359V147H53V141.43C52.9948 140.674 52.8307 140.115 52.5078 139.75C52.1901 139.385 51.6693 139.203 50.9453 139.203C50.2734 139.214 49.7057 139.432 49.2422 139.859C48.7786 140.281 48.5208 140.797 48.4688 141.406V147H47.5312V141.359C47.526 140.635 47.3542 140.096 47.0156 139.742C46.6823 139.383 46.1667 139.203 45.4688 139.203C44.8802 139.203 44.375 139.372 43.9531 139.711C43.5312 140.044 43.2188 140.542 43.0156 141.203V147H42.0781V138.547H42.9766ZM57.1641 138.547L57.1953 139.922C57.5078 139.411 57.8984 139.029 58.3672 138.773C58.8359 138.518 59.3568 138.391 59.9297 138.391C61.263 138.391 62.1094 138.938 62.4688 140.031C62.7708 139.505 63.1745 139.102 63.6797 138.82C64.1849 138.534 64.7422 138.391 65.3516 138.391C67.1641 138.391 68.0885 139.38 68.125 141.359V147H67.1875V141.43C67.1823 140.674 67.0182 140.115 66.6953 139.75C66.3776 139.385 65.8568 139.203 65.1328 139.203C64.4609 139.214 63.8932 139.432 63.4297 139.859C62.9661 140.281 62.7083 140.797 62.6562 141.406V147H61.7188V141.359C61.7135 140.635 61.5417 140.096 61.2031 139.742C60.8698 139.383 60.3542 139.203 59.6562 139.203C59.0677 139.203 58.5625 139.372 58.1406 139.711C57.7188 140.044 57.4062 140.542 57.2031 141.203V147H56.2656V138.547H57.1641ZM73.7734 147.156C73.0547 147.156 72.4036 146.979 71.8203 146.625C71.2422 146.271 70.7917 145.779 70.4688 145.148C70.1458 144.513 69.9844 143.802 69.9844 143.016V142.68C69.9844 141.867 70.1406 141.135 70.4531 140.484C70.7708 139.833 71.2109 139.323 71.7734 138.953C72.3359 138.578 72.9453 138.391 73.6016 138.391C74.6276 138.391 75.4401 138.742 76.0391 139.445C76.6432 140.143 76.9453 141.099 76.9453 142.312V142.836H70.9141V143.016C70.9141 143.974 71.1875 144.773 71.7344 145.414C72.2865 146.049 72.9792 146.367 73.8125 146.367C74.3125 146.367 74.7526 146.276 75.1328 146.094C75.5182 145.911 75.8672 145.62 76.1797 145.219L76.7656 145.664C76.0781 146.659 75.0807 147.156 73.7734 147.156ZM73.6016 139.188C72.8984 139.188 72.3047 139.445 71.8203 139.961C71.3411 140.477 71.0495 141.169 70.9453 142.039H76.0156V141.938C75.9896 141.125 75.7578 140.464 75.3203 139.953C74.8828 139.443 74.3099 139.188 73.6016 139.188ZM82.6719 139.344C82.474 139.307 82.263 139.289 82.0391 139.289C81.4557 139.289 80.9609 139.453 80.5547 139.781C80.1536 140.104 79.8672 140.576 79.6953 141.195V147H78.7656V138.547H79.6797L79.6953 139.891C80.1901 138.891 80.9844 138.391 82.0781 138.391C82.3385 138.391 82.5443 138.424 82.6953 138.492L82.6719 139.344ZM91.3203 147.156C90.6016 147.156 89.9505 146.979 89.3672 146.625C88.7891 146.271 88.3385 145.779 88.0156 145.148C87.6927 144.513 87.5312 143.802 87.5312 143.016V142.68C87.5312 141.867 87.6875 141.135 88 140.484C88.3177 139.833 88.7578 139.323 89.3203 138.953C89.8828 138.578 90.4922 138.391 91.1484 138.391C92.1745 138.391 92.987 138.742 93.5859 139.445C94.1901 140.143 94.4922 141.099 94.4922 142.312V142.836H88.4609V143.016C88.4609 143.974 88.7344 144.773 89.2812 145.414C89.8333 146.049 90.526 146.367 91.3594 146.367C91.8594 146.367 92.2995 146.276 92.6797 146.094C93.0651 145.911 93.4141 145.62 93.7266 145.219L94.3125 145.664C93.625 146.659 92.6276 147.156 91.3203 147.156ZM91.1484 139.188C90.4453 139.188 89.8516 139.445 89.3672 139.961C88.888 140.477 88.5964 141.169 88.4922 142.039H93.5625V141.938C93.5365 141.125 93.3047 140.464 92.8672 139.953C92.4297 139.443 91.8568 139.188 91.1484 139.188ZM98.8359 145.711L101.406 138.547H102.367L99.2109 147H98.4531L95.2812 138.547H96.2422L98.8359 145.711ZM107.07 147.156C106.352 147.156 105.701 146.979 105.117 146.625C104.539 146.271 104.089 145.779 103.766 145.148C103.443 144.513 103.281 143.802 103.281 143.016V142.68C103.281 141.867 103.438 141.135 103.75 140.484C104.068 139.833 104.508 139.323 105.07 138.953C105.633 138.578 106.242 138.391 106.898 138.391C107.924 138.391 108.737 138.742 109.336 139.445C109.94 140.143 110.242 141.099 110.242 142.312V142.836H104.211V143.016C104.211 143.974 104.484 144.773 105.031 145.414C105.583 146.049 106.276 146.367 107.109 146.367C107.609 146.367 108.049 146.276 108.43 146.094C108.815 145.911 109.164 145.62 109.477 145.219L110.062 145.664C109.375 146.659 108.378 147.156 107.07 147.156ZM106.898 139.188C106.195 139.188 105.602 139.445 105.117 139.961C104.638 140.477 104.346 141.169 104.242 142.039H109.312V141.938C109.286 141.125 109.055 140.464 108.617 139.953C108.18 139.443 107.607 139.188 106.898 139.188ZM115.969 139.344C115.771 139.307 115.56 139.289 115.336 139.289C114.753 139.289 114.258 139.453 113.852 139.781C113.451 140.104 113.164 140.576 112.992 141.195V147H112.062V138.547H112.977L112.992 139.891C113.487 138.891 114.281 138.391 115.375 138.391C115.635 138.391 115.841 138.424 115.992 138.492L115.969 139.344Z" fill="#232C3D"/>
<path d="M100.58 171.661H103.355V172.857H100.58V176.002H99.3086V172.857H96.5332V171.661H99.3086V168.756H100.58V171.661ZM112.399 177H111.128V168.571L108.578 169.508V168.359L112.201 166.999H112.399V177ZM117.943 171.408H118.894C119.491 171.399 119.96 171.242 120.302 170.937C120.644 170.631 120.814 170.219 120.814 169.699C120.814 168.533 120.233 167.949 119.071 167.949C118.524 167.949 118.087 168.106 117.759 168.421C117.435 168.731 117.273 169.143 117.273 169.658H116.009C116.009 168.87 116.296 168.216 116.87 167.696C117.449 167.172 118.183 166.91 119.071 166.91C120.01 166.91 120.746 167.159 121.279 167.655C121.812 168.152 122.079 168.842 122.079 169.727C122.079 170.16 121.938 170.579 121.655 170.984C121.377 171.39 120.997 171.693 120.514 171.894C121.061 172.067 121.482 172.354 121.778 172.755C122.079 173.156 122.229 173.646 122.229 174.225C122.229 175.118 121.938 175.826 121.354 176.351C120.771 176.875 120.012 177.137 119.078 177.137C118.144 177.137 117.383 176.884 116.795 176.378C116.212 175.872 115.92 175.204 115.92 174.375H117.191C117.191 174.899 117.362 175.318 117.704 175.633C118.046 175.947 118.504 176.104 119.078 176.104C119.689 176.104 120.156 175.945 120.479 175.626C120.803 175.307 120.965 174.849 120.965 174.252C120.965 173.673 120.787 173.229 120.432 172.919C120.076 172.609 119.563 172.45 118.894 172.44H117.943V171.408Z" fill="#959BA2"/>
<rect x="24.5" y="160.5" width="27" height="23" rx="3.5" fill="white" stroke="#959BA2"/>
<path d="M30 172L31.41 173.41L37 167.83V180H39V167.83L44.58 173.42L46 172L38 164L30 172Z" fill="#959BA2"/>
<rect x="60.5" y="160.5" width="27" height="23" rx="3.5" fill="white" stroke="#FF7C73"/>
<path d="M82 172L80.59 170.59L75 176.17V164H73V176.17L67.42 170.58L66 172L74 180L82 172Z" fill="#FF7C73"/>
<rect x="24.5" y="160.5" width="27" height="23" rx="3.5" fill="white" stroke="#2196F3"/>
<path d="M30 172L31.41 173.41L37 167.83V180H39V167.83L44.58 173.42L46 172L38 164L30 172Z" fill="#2196F3"/>
<rect x="60.5" y="160.5" width="27" height="23" rx="3.5" fill="white" stroke="#959BA2"/>
<path d="M82 172L80.59 170.59L75 176.17V164H73V176.17L67.42 170.58L66 172L74 180L82 172Z" fill="#959BA2"/>
<defs>
<filter id="filter0_d" x="-4" y="0" width="403" height="80" filterUnits="userSpaceOnUse" color-interpolation-filters="sRGB">
<feFlood flood-opacity="0" result="BackgroundImageFix"/>
<feColorMatrix in="SourceAlpha" type="matrix" values="0 0 0 0 0 0 0 0 0 0 0 0 0 0 0 0 0 0 127 0"/>
<feOffset dy="4"/>
<feGaussianBlur stdDeviation="8"/>
<feColorMatrix type="matrix" values="0 0 0 0 0 0 0 0 0 0 0 0 0 0 0 0 0 0 0.25 0"/>
<feBlend mode="normal" in2="BackgroundImageFix" result="effect1_dropShadow"/>
<feBlend mode="normal" in="SourceGraphic" in2="effect1_dropShadow" result="shape"/>
</filter>
<filter id="filter1_d" x="379" y="60" width="62" height="62" filterUnits="userSpaceOnUse" color-interpolation-filters="sRGB">
<feFlood flood-opacity="0" result="BackgroundImageFix"/>
<feColorMatrix in="SourceAlpha" type="matrix" values="0 0 0 0 0 0 0 0 0 0 0 0 0 0 0 0 0 0 127 0"/>
<feOffset dy="4"/>
<feGaussianBlur stdDeviation="8"/>
<feColorMatrix type="matrix" values="0 0 0 0 0 0 0 0 0 0 0 0 0 0 0 0 0 0 0.25 0"/>
<feBlend mode="normal" in2="BackgroundImageFix" result="effect1_dropShadow"/>
<feBlend mode="normal" in="SourceGraphic" in2="effect1_dropShadow" result="shape"/>
</filter>
<filter id="filter2_d" x="-4" y="200" width="62" height="62" filterUnits="userSpaceOnUse" color-interpolation-filters="sRGB">
<feFlood flood-opacity="0" result="BackgroundImageFix"/>
<feColorMatrix in="SourceAlpha" type="matrix" values="0 0 0 0 0 0 0 0 0 0 0 0 0 0 0 0 0 0 127 0"/>
<feOffset dy="4"/>
<feGaussianBlur stdDeviation="8"/>
<feColorMatrix type="matrix" values="0 0 0 0 0 0 0 0 0 0 0 0 0 0 0 0 0 0 0.25 0"/>
<feBlend mode="normal" in2="BackgroundImageFix" result="effect1_dropShadow"/>
<feBlend mode="normal" in="SourceGraphic" in2="effect1_dropShadow" result="shape"/>
</filter>
<filter id="filter3_d" x="-4" y="60" width="403" height="160" filterUnits="userSpaceOnUse" color-interpolation-filters="sRGB">
<feFlood flood-opacity="0" result="BackgroundImageFix"/>
<feColorMatrix in="SourceAlpha" type="matrix" values="0 0 0 0 0 0 0 0 0 0 0 0 0 0 0 0 0 0 127 0"/>
<feOffset dy="4"/>
<feGaussianBlur stdDeviation="8"/>
<feColorMatrix type="matrix" values="0 0 0 0 0 0 0 0 0 0 0 0 0 0 0 0 0 0 0.25 0"/>
<feBlend mode="normal" in2="BackgroundImageFix" result="effect1_dropShadow"/>
<feBlend mode="normal" in="SourceGraphic" in2="effect1_dropShadow" result="shape"/>
</filter>
<linearGradient id="paint0_linear" x1="383" y1="21.9" x2="51.619" y2="120.192" gradientUnits="userSpaceOnUse">
<stop stop-color="#102B58"/>
<stop offset="1" stop-color="#5F5F87"/>
</linearGradient>
<linearGradient id="paint1_linear" x1="7.05334" y1="60" x2="337.084" y2="-60.7619" gradientUnits="userSpaceOnUse">
<stop stop-color="#D2A7BF"/>
<stop offset="0.143646" stop-color="white" stop-opacity="0"/>
</linearGradient>
</defs>
</svg>
