<svg width="187" height="42" viewBox="0 0 187 42" fill="none" xmlns="http://www.w3.org/2000/svg">
<path d="M0.615234 8.11328H5.34375L8.0332 26.166L14.5723 8.11328H19.0547L25.1719 25.4629L28.0195 8.11328H32.6074L27.8789 33.25H23.4492L16.541 13.5273L9.12305 33.25H4.74609L0.615234 8.11328ZM44.1345 20.6113C44.1345 26.459 46.7302 29.3828 51.9216 29.3828C56.9841 29.3828 59.5153 26.459 59.5153 20.6113C59.5153 14.8574 56.9841 11.9805 51.9216 11.9805C46.7302 11.9805 44.1345 14.8574 44.1345 20.6113ZM39.3005 20.7168C39.3005 12.1973 43.5075 7.9375 51.9216 7.9375C60.2067 7.9375 64.3493 12.1973 64.3493 20.7168C64.3493 29.1895 60.2067 33.4258 51.9216 33.4258C43.8825 33.4258 39.6755 29.1895 39.3005 20.7168ZM73.0814 33.25V8.11328H77.7396L91.0111 26.4297V8.11328H95.4935V33.25H90.8353L77.5638 14.5469V33.25H73.0814ZM114.948 29.207C120.163 29.207 122.771 26.1367 122.771 19.9961C122.771 14.7695 120.163 12.1562 114.948 12.1562H109.763V29.207H114.948ZM105.105 33.25V8.11328H114.948C123.269 8.11328 127.429 12.0742 127.429 19.9961C127.429 28.832 123.269 33.25 114.948 33.25H105.105ZM152.93 8.11328V12.1211H140.344V18.4492H152.333V22.6152H140.292V29.207H153.176V33.25H135.721V8.11328H152.93ZM161.803 33.2148V8.11328H173.229C178.362 8.11328 180.928 10.3574 180.928 14.8457C180.928 17.8809 178.93 20.3945 174.934 22.3867L182.897 33.25H177.026L169.379 22.2988V20.1719C173.832 19.4102 176.059 17.6816 176.059 14.9863C176.059 13.1348 175.016 12.209 172.93 12.209H166.549V33.2148H161.803Z" fill="white"/>
</svg>
