<svg width="52" height="51" viewBox="0 0 52 51" fill="none" xmlns="http://www.w3.org/2000/svg">
<path fill-rule="evenodd" clip-rule="evenodd" d="M2.25 25.2509C2.25 12.1336 12.8836 1.5 26.0009 1.5C39.1182 1.5 49.7518 12.1336 49.7518 25.2509C49.7518 38.3682 39.1182 49.0018 26.0009 49.0018C12.8836 49.0018 2.25 38.3682 2.25 25.2509ZM26.0009 0C12.0552 0 0.75 11.3052 0.75 25.2509C0.75 39.1966 12.0552 50.5018 26.0009 50.5018C39.9466 50.5018 51.2518 39.1966 51.2518 25.2509C51.2518 11.3052 39.9466 0 26.0009 0ZM26.7509 2.56488C26.7509 2.15067 26.4151 1.81488 26.0009 1.81488C25.5867 1.81488 25.2509 2.15067 25.2509 2.56488V9.82441C25.2509 10.2386 25.5867 10.5744 26.0009 10.5744C26.4151 10.5744 26.7509 10.2386 26.7509 9.82441V2.56488ZM20.8537 3.14377C20.7465 2.74367 20.3353 2.50624 19.9352 2.61344C19.5351 2.72065 19.2977 3.1319 19.4049 3.532L20.3443 7.03808C20.4515 7.43818 20.8628 7.67562 21.2629 7.56841C21.663 7.46121 21.9004 7.04995 21.7932 6.64985L20.8537 3.14377ZM32.5969 3.532C32.7041 3.1319 32.4666 2.72065 32.0665 2.61345C31.6664 2.50624 31.2552 2.74368 31.148 3.14378L30.2085 6.64986C30.1013 7.04996 30.3388 7.46121 30.7389 7.56842C31.139 7.67562 31.5502 7.43819 31.6574 7.03809L32.5969 3.532ZM15.3074 5.22923C15.1003 4.87051 14.6416 4.74761 14.2828 4.95471C13.9241 5.16182 13.8012 5.62051 14.0083 5.97923L15.8232 9.1227C16.0303 9.48142 16.489 9.60433 16.8477 9.39722C17.2064 9.19011 17.3293 8.73142 17.1222 8.3727L15.3074 5.22923ZM37.9934 5.97923C38.2005 5.62051 38.0776 5.16182 37.7189 4.95471C37.3601 4.74761 36.9015 4.87051 36.6943 5.22923L34.8795 8.3727C34.6724 8.73142 34.7953 9.19011 35.154 9.39722C35.5127 9.60433 35.9714 9.48142 36.1785 9.1227L37.9934 5.97923ZM10.4897 8.67913C10.1968 8.38623 9.72197 8.38623 9.42908 8.67913C9.13619 8.97202 9.13619 9.4469 9.42908 9.73979L11.9957 12.3064C12.2886 12.5993 12.7635 12.5993 13.0564 12.3064C13.3493 12.0135 13.3493 11.5387 13.0564 11.2458L10.4897 8.67913ZM42.5726 9.73979C42.8655 9.44689 42.8655 8.97202 42.5726 8.67913C42.2797 8.38623 41.8049 8.38623 41.512 8.67913L38.9453 11.2458C38.6524 11.5387 38.6524 12.0135 38.9453 12.3064C39.2382 12.5993 39.7131 12.5993 40.006 12.3064L42.5726 9.73979ZM6.72918 13.2584C6.37046 13.0513 5.91177 13.1742 5.70466 13.5329C5.49755 13.8916 5.62046 14.3503 5.97918 14.5574L9.12265 16.3723C9.48137 16.5794 9.94006 16.4565 10.1472 16.0978C10.3543 15.7391 10.2314 15.2804 9.87265 15.0733L6.72918 13.2584ZM46.0225 14.5574C46.3812 14.3503 46.5042 13.8916 46.297 13.5329C46.0899 13.1742 45.6312 13.0513 45.2725 13.2584L42.1291 15.0733C41.7703 15.2804 41.6474 15.7391 41.8545 16.0978C42.0616 16.4565 42.5203 16.5794 42.8791 16.3723L46.0225 14.5574ZM48.108 20.1038C48.5081 19.9966 48.7455 19.5853 48.6383 19.1852C48.5311 18.7851 48.1199 18.5477 47.7198 18.6549L44.2137 19.5943C43.8136 19.7015 43.5762 20.1128 43.6834 20.5129C43.7906 20.913 44.2018 21.1504 44.6019 21.0432L48.108 20.1038ZM4.28194 18.6549C3.88185 18.5477 3.47059 18.7851 3.36339 19.1852C3.25618 19.5853 3.49362 19.9966 3.89372 20.1038L7.3998 21.0432C7.7999 21.1504 8.21115 20.913 8.31836 20.5129C8.42556 20.1128 8.18813 19.7015 7.78803 19.5943L4.28194 18.6549ZM3.31488 24.5009C2.90067 24.5009 2.56488 24.8367 2.56488 25.2509C2.56488 25.6651 2.90067 26.0009 3.31488 26.0009H10.5744C10.9886 26.0009 11.3244 25.6651 11.3244 25.2509C11.3244 24.8367 10.9886 24.5009 10.5744 24.5009H3.31488ZM41.4274 24.5009C41.0132 24.5009 40.6774 24.8367 40.6774 25.2509C40.6774 25.6651 41.0132 26.0009 41.4274 26.0009H48.6869C49.1011 26.0009 49.4369 25.6651 49.4369 25.2509C49.4369 24.8367 49.1011 24.5009 48.6869 24.5009H41.4274ZM7.78806 30.9075C8.18816 30.8003 8.4256 30.389 8.31839 29.9889C8.21118 29.5888 7.79993 29.3514 7.39983 29.4586L3.89375 30.398C3.49365 30.5052 3.25621 30.9165 3.36342 31.3166C3.47062 31.7167 3.88188 31.9541 4.28198 31.8469L7.78806 30.9075ZM44.6019 29.4586C44.2018 29.3514 43.7905 29.5888 43.6833 29.9889C43.5761 30.389 43.8136 30.8003 44.2137 30.9075L47.7197 31.8469C48.1199 31.9541 48.5311 31.7167 48.6383 31.3166C48.7455 30.9165 48.5081 30.5052 48.108 30.398L44.6019 29.4586ZM9.87265 35.4286C10.2314 35.2215 10.3543 34.7628 10.1472 34.404C9.94006 34.0453 9.48137 33.9224 9.12265 34.1295L5.97918 35.9444C5.62046 36.1515 5.49755 36.6102 5.70466 36.9689C5.91177 37.3276 6.37046 37.4505 6.72918 37.2434L9.87265 35.4286ZM42.8791 34.1295C42.5203 33.9224 42.0616 34.0453 41.8545 34.404C41.6474 34.7628 41.7703 35.2215 42.1291 35.4286L45.2725 37.2434C45.6312 37.4505 46.0899 37.3276 46.297 36.9689C46.5042 36.6102 46.3812 36.1515 46.0225 35.9444L42.8791 34.1295ZM13.0564 39.256C13.3493 38.9632 13.3493 38.4883 13.0564 38.1954C12.7635 37.9025 12.2886 37.9025 11.9957 38.1954L9.42908 40.762C9.13619 41.0549 9.13619 41.5298 9.42908 41.8227C9.72197 42.1156 10.1968 42.1156 10.4897 41.8227L13.0564 39.256ZM40.006 38.1954C39.7131 37.9025 39.2382 37.9025 38.9453 38.1954C38.6524 38.4883 38.6524 38.9632 38.9453 39.256L41.512 41.8227C41.8049 42.1156 42.2797 42.1156 42.5726 41.8227C42.8655 41.5298 42.8655 41.0549 42.5726 40.762L40.006 38.1954ZM26.7509 40.6774C26.7509 40.2632 26.4151 39.9274 26.0009 39.9274C25.5867 39.9274 25.2509 40.2632 25.2509 40.6774V47.9369C25.2509 48.3511 25.5867 48.6869 26.0009 48.6869C26.4151 48.6869 26.7509 48.3511 26.7509 47.9369V40.6774ZM36.1785 41.3791C35.9714 41.0204 35.5127 40.8975 35.154 41.1046C34.7953 41.3117 34.6724 41.7704 34.8795 42.1291L36.6943 45.2726C36.9015 45.6313 37.3601 45.7542 37.7189 45.5471C38.0776 45.34 38.2005 44.8813 37.9934 44.5226L36.1785 41.3791ZM17.1222 42.1291C17.3293 41.7704 17.2064 41.3117 16.8477 41.1046C16.489 40.8975 16.0303 41.0204 15.8232 41.3791L14.0083 44.5226C13.8012 44.8813 13.9241 45.34 14.2828 45.5471C14.6416 45.7542 15.1003 45.6313 15.3074 45.2726L17.1222 42.1291ZM31.6574 43.4637C31.5502 43.0636 31.139 42.8262 30.7389 42.9334C30.3388 43.0406 30.1014 43.4519 30.2086 43.852L31.148 47.358C31.2552 47.7581 31.6665 47.9956 32.0666 47.8884C32.4667 47.7812 32.7041 47.3699 32.5969 46.9698L31.6574 43.4637ZM21.7932 43.852C21.9004 43.4519 21.6629 43.0406 21.2628 42.9334C20.8627 42.8262 20.4515 43.0636 20.3443 43.4637L19.4048 46.9698C19.2976 47.3699 19.5351 47.7812 19.9352 47.8884C20.3353 47.9956 20.7465 47.7581 20.8537 47.358L21.7932 43.852ZM35.8949 12.2543L24.556 24.1505L16.1051 38.2457L27.444 26.3494L35.8949 12.2543Z" fill="white"/>
</svg>
