<svg width="380" height="380" viewBox="0 0 380 380" fill="none" xmlns="http://www.w3.org/2000/svg">
<circle cx="189.5" cy="190.5" r="142" stroke="#3A84EE" stroke-width="3" stroke-dasharray="12 8"/>
<path d="M114.793 59.1306L115.497 49.2142L123.787 54.7017L139.164 97.274L114.793 59.1306Z" fill="#FFCC00"/>
<path d="M281.226 69.7135L298.824 67.8815L300.687 85.4765L249.731 128.493L281.226 69.7135Z" fill="#3480EE"/>
<circle cx="316" cy="46" r="25" fill="#3480EE"/>
<circle cx="316" cy="46" r="25" fill="url(#paint0_linear)" fill-opacity="0.15"/>
<path d="M308.983 51H307.712V42.5713L305.162 43.5078V42.3594L308.785 40.999H308.983V51ZM313.27 46.0098L313.775 41.0469H318.875V42.2158H314.849L314.548 44.9297C315.035 44.6426 315.589 44.499 316.209 44.499C317.116 44.499 317.836 44.7998 318.369 45.4014C318.902 45.9984 319.169 46.8073 319.169 47.8281C319.169 48.8535 318.891 49.6624 318.335 50.2549C317.784 50.8428 317.011 51.1367 316.018 51.1367C315.138 51.1367 314.42 50.8929 313.864 50.4053C313.308 49.9176 312.992 49.2432 312.914 48.3818H314.11C314.188 48.9515 314.391 49.3822 314.719 49.6738C315.047 49.9609 315.48 50.1045 316.018 50.1045C316.605 50.1045 317.066 49.904 317.398 49.5029C317.736 49.1019 317.904 48.5482 317.904 47.8418C317.904 47.1764 317.722 46.6432 317.357 46.2422C316.997 45.8366 316.517 45.6338 315.915 45.6338C315.364 45.6338 314.931 45.7546 314.616 45.9961L314.281 46.2695L313.27 46.0098ZM327.071 51H320.55V50.0908L323.995 46.2627C324.506 45.6839 324.856 45.2145 325.048 44.8545C325.244 44.4899 325.342 44.1139 325.342 43.7266C325.342 43.207 325.185 42.7809 324.87 42.4482C324.556 42.1156 324.136 41.9492 323.612 41.9492C322.983 41.9492 322.493 42.1292 322.143 42.4893C321.796 42.8447 321.623 43.3415 321.623 43.9795H320.358C320.358 43.0635 320.652 42.3229 321.24 41.7578C321.833 41.1927 322.623 40.9102 323.612 40.9102C324.537 40.9102 325.269 41.154 325.807 41.6416C326.344 42.1247 326.613 42.7695 326.613 43.5762C326.613 44.556 325.989 45.7227 324.74 47.0762L322.074 49.9678H327.071V51Z" fill="white"/>
<path d="M313.008 294.696L314.339 307.484L301.554 308.838L270.295 271.809L313.008 294.696Z" fill="#3480EE" fill-opacity="0.7"/>
<circle cx="329.5" cy="318.5" r="15.5" fill="#3480EE" fill-opacity="0.7"/>
<path d="M323.805 317.408H324.755C325.352 317.399 325.821 317.242 326.163 316.937C326.505 316.631 326.676 316.219 326.676 315.699C326.676 314.533 326.095 313.949 324.933 313.949C324.386 313.949 323.948 314.106 323.62 314.421C323.297 314.731 323.135 315.143 323.135 315.658H321.87C321.87 314.87 322.157 314.216 322.731 313.696C323.31 313.172 324.044 312.91 324.933 312.91C325.871 312.91 326.607 313.159 327.141 313.655C327.674 314.152 327.94 314.842 327.94 315.727C327.94 316.16 327.799 316.579 327.517 316.984C327.239 317.39 326.858 317.693 326.375 317.894C326.922 318.067 327.343 318.354 327.64 318.755C327.94 319.156 328.091 319.646 328.091 320.225C328.091 321.118 327.799 321.826 327.216 322.351C326.632 322.875 325.874 323.137 324.939 323.137C324.005 323.137 323.244 322.884 322.656 322.378C322.073 321.872 321.781 321.204 321.781 320.375H323.053C323.053 320.899 323.224 321.318 323.565 321.633C323.907 321.947 324.365 322.104 324.939 322.104C325.55 322.104 326.017 321.945 326.341 321.626C326.664 321.307 326.826 320.849 326.826 320.252C326.826 319.673 326.648 319.229 326.293 318.919C325.938 318.609 325.425 318.45 324.755 318.44H323.805V317.408ZM336.349 323H329.827V322.091L333.272 318.263C333.783 317.684 334.134 317.215 334.325 316.854C334.521 316.49 334.619 316.114 334.619 315.727C334.619 315.207 334.462 314.781 334.147 314.448C333.833 314.116 333.414 313.949 332.89 313.949C332.261 313.949 331.771 314.129 331.42 314.489C331.074 314.845 330.9 315.341 330.9 315.979H329.636C329.636 315.063 329.93 314.323 330.518 313.758C331.11 313.193 331.901 312.91 332.89 312.91C333.815 312.91 334.546 313.154 335.084 313.642C335.622 314.125 335.891 314.77 335.891 315.576C335.891 316.556 335.266 317.723 334.018 319.076L331.352 321.968H336.349V323Z" fill="white"/>
<defs>
<linearGradient id="paint0_linear" x1="316" y1="21" x2="316" y2="71" gradientUnits="userSpaceOnUse">
<stop stop-color="white"/>
<stop offset="1" stop-color="white" stop-opacity="0"/>
</linearGradient>
</defs>
</svg>
