<svg width="435" height="614" viewBox="0 0 435 614" fill="none" xmlns="http://www.w3.org/2000/svg">
<g filter="url(#filter0_d)">
<path d="M42 184H393V542C393 548.627 387.627 554 381 554H54C47.3726 554 42 548.627 42 542V184Z" fill="white"/>
</g>
<rect x="42" width="351" height="184" fill="white"/>
<path d="M326 32C326 14.3269 340.327 -4.34256e-06 358 -2.79753e-06C375.673 -1.2525e-06 390 14.3269 390 32C390 49.6731 375.673 64 358 64C340.327 64 326 49.6731 326 32ZM384.222 32C384.222 17.5182 372.482 5.77847 358 5.77847C343.518 5.77847 331.778 17.5182 331.778 32C331.778 46.4817 343.518 58.2215 358 58.2215C372.482 58.2215 384.222 46.4818 384.222 32Z" fill="#F2F2F2"/>
<path d="M358 -2.79753e-06C363.392 -2.09048e-06 368.696 1.36238 373.421 3.96065C378.145 6.55891 382.136 10.3088 385.024 14.8622C387.912 19.4155 389.602 24.6247 389.938 30.006C390.274 35.3873 389.245 40.7662 386.946 45.6434C384.647 50.5206 381.153 54.7378 376.788 57.9035C372.424 61.0693 367.33 63.0808 361.98 63.7515C356.63 64.4221 351.198 63.7301 346.187 61.7397C341.176 59.7492 336.749 56.5249 333.318 52.3661L337.775 48.6884C340.587 52.0963 344.214 54.7383 348.32 56.3694C352.426 58.0004 356.878 58.5674 361.262 58.0179C365.645 57.4684 369.819 55.82 373.396 53.226C376.972 50.6319 379.835 47.1762 381.719 43.1797C383.603 39.1833 384.446 34.7756 384.171 30.3661C383.895 25.9565 382.51 21.688 380.144 17.9569C377.778 14.2257 374.507 11.153 370.636 9.02391C366.765 6.89483 362.418 5.77847 358 5.77847L358 -2.79753e-06Z" fill="url(#paint0_linear)"/>
<path d="M353.926 22.9258V24.7656H353.527C351.84 24.7969 350.496 25.2969 349.496 26.2656C348.496 27.2344 347.918 28.5977 347.762 30.3555C348.66 29.3242 349.887 28.8086 351.441 28.8086C352.926 28.8086 354.109 29.332 354.992 30.3789C355.883 31.4258 356.328 32.7773 356.328 34.4336C356.328 36.1914 355.848 37.5977 354.887 38.6523C353.934 39.707 352.652 40.2344 351.043 40.2344C349.41 40.2344 348.086 39.6094 347.07 38.3594C346.055 37.1016 345.547 35.4844 345.547 33.5078V32.6758C345.547 29.5352 346.215 27.1367 347.551 25.4805C348.895 23.8164 350.891 22.9648 353.539 22.9258H353.926ZM351.078 30.6133C350.336 30.6133 349.652 30.8359 349.027 31.2812C348.402 31.7266 347.969 32.2852 347.727 32.957V33.7539C347.727 35.1602 348.043 36.293 348.676 37.1523C349.309 38.0117 350.098 38.4414 351.043 38.4414C352.02 38.4414 352.785 38.082 353.34 37.3633C353.902 36.6445 354.184 35.7031 354.184 34.5391C354.184 33.3672 353.898 32.4219 353.328 31.7031C352.766 30.9766 352.016 30.6133 351.078 30.6133ZM369.91 24.1562L362.844 40H360.57L367.613 24.7188H358.379V22.9375H369.91V24.1562Z" fill="#959BA2"/>
<path d="M42.4102 5.24219H45.5625L47.3555 17.2773L51.7148 5.24219H54.7031L58.7812 16.8086L60.6797 5.24219H63.7383L60.5859 22H57.6328L53.0273 8.85156L48.082 22H45.1641L42.4102 5.24219ZM71.423 13.5742C71.423 17.4727 73.1534 19.4219 76.6144 19.4219C79.9894 19.4219 81.6769 17.4727 81.6769 13.5742C81.6769 9.73828 79.9894 7.82031 76.6144 7.82031C73.1534 7.82031 71.423 9.73828 71.423 13.5742ZM68.2003 13.6445C68.2003 7.96484 71.005 5.125 76.6144 5.125C82.1378 5.125 84.8995 7.96484 84.8995 13.6445C84.8995 19.293 82.1378 22.1172 76.6144 22.1172C71.255 22.1172 68.4503 19.293 68.2003 13.6445ZM90.7209 22V5.24219H93.8264L102.674 17.4531V5.24219H105.662V22H102.557L93.7092 9.53125V22H90.7209ZM118.632 19.3047C122.109 19.3047 123.847 17.2578 123.847 13.1641C123.847 9.67969 122.109 7.9375 118.632 7.9375H115.175V19.3047H118.632ZM112.07 22V5.24219H118.632C124.179 5.24219 126.952 7.88281 126.952 13.1641C126.952 19.0547 124.179 22 118.632 22H112.07ZM143.954 5.24219V7.91406H135.563V12.1328H143.555V14.9102H135.528V19.3047H144.118V22H132.481V5.24219H143.954ZM149.869 21.9766V5.24219H157.486C160.908 5.24219 162.619 6.73828 162.619 9.73047C162.619 11.7539 161.287 13.4297 158.623 14.7578L163.931 22H160.017L154.92 14.6992V13.2812C157.888 12.7734 159.373 11.6211 159.373 9.82422C159.373 8.58984 158.677 7.97266 157.287 7.97266H153.033V21.9766H149.869Z" fill="#0B1927"/>
<path d="M42.4102 5.24219H45.5625L47.3555 17.2773L51.7148 5.24219H54.7031L58.7812 16.8086L60.6797 5.24219H63.7383L60.5859 22H57.6328L53.0273 8.85156L48.082 22H45.1641L42.4102 5.24219ZM71.423 13.5742C71.423 17.4727 73.1534 19.4219 76.6144 19.4219C79.9894 19.4219 81.6769 17.4727 81.6769 13.5742C81.6769 9.73828 79.9894 7.82031 76.6144 7.82031C73.1534 7.82031 71.423 9.73828 71.423 13.5742ZM68.2003 13.6445C68.2003 7.96484 71.005 5.125 76.6144 5.125C82.1378 5.125 84.8995 7.96484 84.8995 13.6445C84.8995 19.293 82.1378 22.1172 76.6144 22.1172C71.255 22.1172 68.4503 19.293 68.2003 13.6445ZM90.7209 22V5.24219H93.8264L102.674 17.4531V5.24219H105.662V22H102.557L93.7092 9.53125V22H90.7209ZM118.632 19.3047C122.109 19.3047 123.847 17.2578 123.847 13.1641C123.847 9.67969 122.109 7.9375 118.632 7.9375H115.175V19.3047H118.632ZM112.07 22V5.24219H118.632C124.179 5.24219 126.952 7.88281 126.952 13.1641C126.952 19.0547 124.179 22 118.632 22H112.07ZM143.954 5.24219V7.91406H135.563V12.1328H143.555V14.9102H135.528V19.3047H144.118V22H132.481V5.24219H143.954ZM149.869 21.9766V5.24219H157.486C160.908 5.24219 162.619 6.73828 162.619 9.73047C162.619 11.7539 161.287 13.4297 158.623 14.7578L163.931 22H160.017L154.92 14.6992V13.2812C157.888 12.7734 159.373 11.6211 159.373 9.82422C159.373 8.58984 158.677 7.97266 157.287 7.97266H153.033V21.9766H149.869Z" fill="url(#paint1_linear)" fill-opacity="0.5"/>
<path d="M42.4102 5.24219H45.5625L47.3555 17.2773L51.7148 5.24219H54.7031L58.7812 16.8086L60.6797 5.24219H63.7383L60.5859 22H57.6328L53.0273 8.85156L48.082 22H45.1641L42.4102 5.24219ZM71.423 13.5742C71.423 17.4727 73.1534 19.4219 76.6144 19.4219C79.9894 19.4219 81.6769 17.4727 81.6769 13.5742C81.6769 9.73828 79.9894 7.82031 76.6144 7.82031C73.1534 7.82031 71.423 9.73828 71.423 13.5742ZM68.2003 13.6445C68.2003 7.96484 71.005 5.125 76.6144 5.125C82.1378 5.125 84.8995 7.96484 84.8995 13.6445C84.8995 19.293 82.1378 22.1172 76.6144 22.1172C71.255 22.1172 68.4503 19.293 68.2003 13.6445ZM90.7209 22V5.24219H93.8264L102.674 17.4531V5.24219H105.662V22H102.557L93.7092 9.53125V22H90.7209ZM118.632 19.3047C122.109 19.3047 123.847 17.2578 123.847 13.1641C123.847 9.67969 122.109 7.9375 118.632 7.9375H115.175V19.3047H118.632ZM112.07 22V5.24219H118.632C124.179 5.24219 126.952 7.88281 126.952 13.1641C126.952 19.0547 124.179 22 118.632 22H112.07ZM143.954 5.24219V7.91406H135.563V12.1328H143.555V14.9102H135.528V19.3047H144.118V22H132.481V5.24219H143.954ZM149.869 21.9766V5.24219H157.486C160.908 5.24219 162.619 6.73828 162.619 9.73047C162.619 11.7539 161.287 13.4297 158.623 14.7578L163.931 22H160.017L154.92 14.6992V13.2812C157.888 12.7734 159.373 11.6211 159.373 9.82422C159.373 8.58984 158.677 7.97266 157.287 7.97266H153.033V21.9766H149.869Z" fill="url(#paint2_linear)" fill-opacity="0.06"/>
<path d="M202 271L217 256L232 271" stroke="#0F2340" stroke-width="5" stroke-linecap="round" stroke-linejoin="round"/>
<path d="M216.657 275C213.093 275 211.309 270.691 213.828 268.172L217 265L227 275H216.657Z" fill="#0F2340"/>
<rect x="58" y="462" width="319" height="1" fill="#D9E3EE"/>
<path d="M65.0391 508.297L65.6172 502.625H71.4453V503.961H66.8438L66.5 507.062C67.0573 506.734 67.6901 506.57 68.3984 506.57C69.4349 506.57 70.2578 506.914 70.8672 507.602C71.4766 508.284 71.7812 509.208 71.7812 510.375C71.7812 511.547 71.4635 512.471 70.8281 513.148C70.1979 513.82 69.3151 514.156 68.1797 514.156C67.1745 514.156 66.3542 513.878 65.7188 513.32C65.0833 512.763 64.7214 511.992 64.6328 511.008H66C66.0885 511.659 66.3203 512.151 66.6953 512.484C67.0703 512.812 67.5651 512.977 68.1797 512.977C68.8516 512.977 69.3776 512.747 69.7578 512.289C70.1432 511.831 70.3359 511.198 70.3359 510.391C70.3359 509.63 70.1276 509.021 69.7109 508.562C69.2995 508.099 68.75 507.867 68.0625 507.867C67.4323 507.867 66.9375 508.005 66.5781 508.281L66.1953 508.594L65.0391 508.297ZM77.7031 514V502.625H80.9141C81.9036 502.625 82.7786 502.844 83.5391 503.281C84.2995 503.719 84.8854 504.341 85.2969 505.148C85.7135 505.956 85.9245 506.883 85.9297 507.93V508.656C85.9297 509.729 85.7214 510.669 85.3047 511.477C84.8932 512.284 84.3021 512.904 83.5312 513.336C82.7656 513.768 81.8724 513.99 80.8516 514H77.7031ZM79.2031 503.859V512.773H80.7812C81.9375 512.773 82.8359 512.414 83.4766 511.695C84.1224 510.977 84.4453 509.953 84.4453 508.625V507.961C84.4453 506.669 84.1406 505.667 83.5312 504.953C82.9271 504.234 82.0677 503.87 80.9531 503.859H79.2031ZM89.5469 514H88.1016V505.547H89.5469V514ZM87.9844 503.305C87.9844 503.07 88.0547 502.872 88.1953 502.711C88.3411 502.549 88.5547 502.469 88.8359 502.469C89.1172 502.469 89.3307 502.549 89.4766 502.711C89.6224 502.872 89.6953 503.07 89.6953 503.305C89.6953 503.539 89.6224 503.734 89.4766 503.891C89.3307 504.047 89.1172 504.125 88.8359 504.125C88.5547 504.125 88.3411 504.047 88.1953 503.891C88.0547 503.734 87.9844 503.539 87.9844 503.305ZM96.7891 511.758C96.7891 511.367 96.6406 511.065 96.3438 510.852C96.0521 510.633 95.5391 510.445 94.8047 510.289C94.0755 510.133 93.4948 509.945 93.0625 509.727C92.6354 509.508 92.3177 509.247 92.1094 508.945C91.9062 508.643 91.8047 508.284 91.8047 507.867C91.8047 507.174 92.0964 506.589 92.6797 506.109C93.2682 505.63 94.0182 505.391 94.9297 505.391C95.888 505.391 96.6641 505.638 97.2578 506.133C97.8568 506.628 98.1562 507.26 98.1562 508.031H96.7031C96.7031 507.635 96.5339 507.294 96.1953 507.008C95.862 506.721 95.4401 506.578 94.9297 506.578C94.4036 506.578 93.9922 506.693 93.6953 506.922C93.3984 507.151 93.25 507.451 93.25 507.82C93.25 508.169 93.388 508.432 93.6641 508.609C93.9401 508.786 94.4375 508.956 95.1562 509.117C95.8802 509.279 96.4661 509.471 96.9141 509.695C97.362 509.919 97.6927 510.19 97.9062 510.508C98.125 510.82 98.2344 511.203 98.2344 511.656C98.2344 512.411 97.9323 513.018 97.3281 513.477C96.724 513.93 95.9401 514.156 94.9766 514.156C94.2995 514.156 93.7005 514.036 93.1797 513.797C92.6589 513.557 92.25 513.224 91.9531 512.797C91.6615 512.365 91.5156 511.898 91.5156 511.398H92.9609C92.987 511.883 93.1797 512.268 93.5391 512.555C93.9036 512.836 94.3828 512.977 94.9766 512.977C95.5234 512.977 95.9609 512.867 96.2891 512.648C96.6224 512.424 96.7891 512.128 96.7891 511.758ZM103.508 512.977C104.023 512.977 104.474 512.82 104.859 512.508C105.245 512.195 105.458 511.805 105.5 511.336H106.867C106.841 511.82 106.674 512.281 106.367 512.719C106.06 513.156 105.648 513.505 105.133 513.766C104.622 514.026 104.081 514.156 103.508 514.156C102.357 514.156 101.44 513.773 100.758 513.008C100.081 512.237 99.7422 511.185 99.7422 509.852V509.609C99.7422 508.786 99.8932 508.055 100.195 507.414C100.497 506.773 100.93 506.276 101.492 505.922C102.06 505.568 102.729 505.391 103.5 505.391C104.448 505.391 105.234 505.674 105.859 506.242C106.49 506.81 106.826 507.547 106.867 508.453H105.5C105.458 507.906 105.25 507.458 104.875 507.109C104.505 506.755 104.047 506.578 103.5 506.578C102.766 506.578 102.195 506.844 101.789 507.375C101.388 507.901 101.188 508.664 101.188 509.664V509.938C101.188 510.911 101.388 511.661 101.789 512.188C102.19 512.714 102.763 512.977 103.508 512.977ZM108.109 509.695C108.109 508.867 108.271 508.122 108.594 507.461C108.922 506.799 109.375 506.289 109.953 505.93C110.536 505.57 111.201 505.391 111.945 505.391C113.096 505.391 114.026 505.789 114.734 506.586C115.448 507.383 115.805 508.443 115.805 509.766V509.867C115.805 510.69 115.646 511.43 115.328 512.086C115.016 512.737 114.565 513.245 113.977 513.609C113.393 513.974 112.721 514.156 111.961 514.156C110.815 514.156 109.885 513.758 109.172 512.961C108.464 512.164 108.109 511.109 108.109 509.797V509.695ZM109.562 509.867C109.562 510.805 109.779 511.557 110.211 512.125C110.648 512.693 111.232 512.977 111.961 512.977C112.695 512.977 113.279 512.69 113.711 512.117C114.143 511.539 114.359 510.732 114.359 509.695C114.359 508.768 114.138 508.018 113.695 507.445C113.258 506.867 112.674 506.578 111.945 506.578C111.232 506.578 110.656 506.862 110.219 507.43C109.781 507.997 109.562 508.81 109.562 509.867ZM120.281 512.039L122.375 505.547H123.852L120.82 514H119.719L116.656 505.547H118.133L120.281 512.039ZM128.641 514.156C127.495 514.156 126.562 513.781 125.844 513.031C125.125 512.276 124.766 511.268 124.766 510.008V509.742C124.766 508.904 124.924 508.156 125.242 507.5C125.565 506.839 126.013 506.323 126.586 505.953C127.164 505.578 127.789 505.391 128.461 505.391C129.56 505.391 130.414 505.753 131.023 506.477C131.633 507.201 131.938 508.237 131.938 509.586V510.188H126.211C126.232 511.021 126.474 511.695 126.938 512.211C127.406 512.721 128 512.977 128.719 512.977C129.229 512.977 129.661 512.872 130.016 512.664C130.37 512.456 130.68 512.18 130.945 511.836L131.828 512.523C131.12 513.612 130.057 514.156 128.641 514.156ZM128.461 506.578C127.878 506.578 127.388 506.792 126.992 507.219C126.596 507.641 126.352 508.234 126.258 509H130.492V508.891C130.451 508.156 130.253 507.589 129.898 507.188C129.544 506.781 129.065 506.578 128.461 506.578ZM137.703 506.844C137.484 506.807 137.247 506.789 136.992 506.789C136.044 506.789 135.401 507.193 135.062 508V514H133.617V505.547H135.023L135.047 506.523C135.521 505.768 136.193 505.391 137.062 505.391C137.344 505.391 137.557 505.427 137.703 505.5V506.844ZM140.609 514H139.164V505.547H140.609V514ZM139.047 503.305C139.047 503.07 139.117 502.872 139.258 502.711C139.404 502.549 139.617 502.469 139.898 502.469C140.18 502.469 140.393 502.549 140.539 502.711C140.685 502.872 140.758 503.07 140.758 503.305C140.758 503.539 140.685 503.734 140.539 503.891C140.393 504.047 140.18 504.125 139.898 504.125C139.617 504.125 139.404 504.047 139.258 503.891C139.117 503.734 139.047 503.539 139.047 503.305ZM146.438 514.156C145.292 514.156 144.359 513.781 143.641 513.031C142.922 512.276 142.562 511.268 142.562 510.008V509.742C142.562 508.904 142.721 508.156 143.039 507.5C143.362 506.839 143.81 506.323 144.383 505.953C144.961 505.578 145.586 505.391 146.258 505.391C147.357 505.391 148.211 505.753 148.82 506.477C149.43 507.201 149.734 508.237 149.734 509.586V510.188H144.008C144.029 511.021 144.271 511.695 144.734 512.211C145.203 512.721 145.797 512.977 146.516 512.977C147.026 512.977 147.458 512.872 147.812 512.664C148.167 512.456 148.477 512.18 148.742 511.836L149.625 512.523C148.917 513.612 147.854 514.156 146.438 514.156ZM146.258 506.578C145.674 506.578 145.185 506.792 144.789 507.219C144.393 507.641 144.148 508.234 144.055 509H148.289V508.891C148.247 508.156 148.049 507.589 147.695 507.188C147.341 506.781 146.862 506.578 146.258 506.578ZM156.336 511.758C156.336 511.367 156.188 511.065 155.891 510.852C155.599 510.633 155.086 510.445 154.352 510.289C153.622 510.133 153.042 509.945 152.609 509.727C152.182 509.508 151.865 509.247 151.656 508.945C151.453 508.643 151.352 508.284 151.352 507.867C151.352 507.174 151.643 506.589 152.227 506.109C152.815 505.63 153.565 505.391 154.477 505.391C155.435 505.391 156.211 505.638 156.805 506.133C157.404 506.628 157.703 507.26 157.703 508.031H156.25C156.25 507.635 156.081 507.294 155.742 507.008C155.409 506.721 154.987 506.578 154.477 506.578C153.951 506.578 153.539 506.693 153.242 506.922C152.945 507.151 152.797 507.451 152.797 507.82C152.797 508.169 152.935 508.432 153.211 508.609C153.487 508.786 153.984 508.956 154.703 509.117C155.427 509.279 156.013 509.471 156.461 509.695C156.909 509.919 157.24 510.19 157.453 510.508C157.672 510.82 157.781 511.203 157.781 511.656C157.781 512.411 157.479 513.018 156.875 513.477C156.271 513.93 155.487 514.156 154.523 514.156C153.846 514.156 153.247 514.036 152.727 513.797C152.206 513.557 151.797 513.224 151.5 512.797C151.208 512.365 151.062 511.898 151.062 511.398H152.508C152.534 511.883 152.727 512.268 153.086 512.555C153.451 512.836 153.93 512.977 154.523 512.977C155.07 512.977 155.508 512.867 155.836 512.648C156.169 512.424 156.336 512.128 156.336 511.758Z" fill="#959BA2"/>
<path d="M283.953 514H282.5V504.367L279.586 505.438V504.125L283.727 502.57H283.953V514ZM295.641 514H288.188V512.961L292.125 508.586C292.708 507.924 293.109 507.388 293.328 506.977C293.552 506.56 293.664 506.13 293.664 505.688C293.664 505.094 293.484 504.607 293.125 504.227C292.766 503.846 292.286 503.656 291.688 503.656C290.969 503.656 290.409 503.862 290.008 504.273C289.612 504.68 289.414 505.247 289.414 505.977H287.969C287.969 504.93 288.305 504.083 288.977 503.438C289.654 502.792 290.557 502.469 291.688 502.469C292.745 502.469 293.581 502.747 294.195 503.305C294.81 503.857 295.117 504.594 295.117 505.516C295.117 506.635 294.404 507.969 292.977 509.516L289.93 512.82H295.641V514ZM297.273 516.266L296.453 515.703C296.943 515.021 297.198 514.318 297.219 513.594V512.289H298.633V513.422C298.633 513.948 298.503 514.474 298.242 515C297.987 515.526 297.664 515.948 297.273 516.266ZM300.977 508.297L301.555 502.625H307.383V503.961H302.781L302.438 507.062C302.995 506.734 303.628 506.57 304.336 506.57C305.372 506.57 306.195 506.914 306.805 507.602C307.414 508.284 307.719 509.208 307.719 510.375C307.719 511.547 307.401 512.471 306.766 513.148C306.135 513.82 305.253 514.156 304.117 514.156C303.112 514.156 302.292 513.878 301.656 513.32C301.021 512.763 300.659 511.992 300.57 511.008H301.938C302.026 511.659 302.258 512.151 302.633 512.484C303.008 512.812 303.503 512.977 304.117 512.977C304.789 512.977 305.315 512.747 305.695 512.289C306.081 511.831 306.273 511.198 306.273 510.391C306.273 509.63 306.065 509.021 305.648 508.562C305.237 508.099 304.688 507.867 304 507.867C303.37 507.867 302.875 508.005 302.516 508.281L302.133 508.594L300.977 508.297ZM315.398 510.18H316.977V511.359H315.398V514H313.945V511.359H308.766V510.508L313.859 502.625H315.398V510.18ZM310.406 510.18H313.945V504.602L313.773 504.914L310.406 510.18ZM325.414 509.148C325.414 510.841 325.125 512.099 324.547 512.922C323.969 513.745 323.065 514.156 321.836 514.156C320.622 514.156 319.724 513.755 319.141 512.953C318.557 512.146 318.255 510.943 318.234 509.344V507.414C318.234 505.742 318.523 504.5 319.102 503.688C319.68 502.875 320.586 502.469 321.82 502.469C323.044 502.469 323.945 502.862 324.523 503.648C325.102 504.43 325.398 505.638 325.414 507.273V509.148ZM323.969 507.172C323.969 505.948 323.797 505.057 323.453 504.5C323.109 503.938 322.565 503.656 321.82 503.656C321.081 503.656 320.542 503.935 320.203 504.492C319.865 505.049 319.69 505.906 319.68 507.062V509.375C319.68 510.604 319.857 511.513 320.211 512.102C320.57 512.685 321.112 512.977 321.836 512.977C322.549 512.977 323.078 512.701 323.422 512.148C323.771 511.596 323.953 510.727 323.969 509.539V507.172ZM334.961 508.93C333.674 508.56 332.737 508.107 332.148 507.57C331.565 507.029 331.273 506.362 331.273 505.57C331.273 504.674 331.63 503.935 332.344 503.352C333.062 502.763 333.995 502.469 335.141 502.469C335.922 502.469 336.617 502.62 337.227 502.922C337.841 503.224 338.315 503.641 338.648 504.172C338.987 504.703 339.156 505.284 339.156 505.914H337.648C337.648 505.227 337.43 504.688 336.992 504.297C336.555 503.901 335.938 503.703 335.141 503.703C334.401 503.703 333.823 503.867 333.406 504.195C332.995 504.518 332.789 504.969 332.789 505.547C332.789 506.01 332.984 506.404 333.375 506.727C333.771 507.044 334.44 507.336 335.383 507.602C336.331 507.867 337.07 508.161 337.602 508.484C338.138 508.802 338.534 509.174 338.789 509.602C339.049 510.029 339.18 510.531 339.18 511.109C339.18 512.031 338.82 512.771 338.102 513.328C337.383 513.88 336.422 514.156 335.219 514.156C334.438 514.156 333.708 514.008 333.031 513.711C332.354 513.409 331.831 512.997 331.461 512.477C331.096 511.956 330.914 511.365 330.914 510.703H332.422C332.422 511.391 332.674 511.935 333.18 512.336C333.69 512.732 334.37 512.93 335.219 512.93C336.01 512.93 336.617 512.768 337.039 512.445C337.461 512.122 337.672 511.682 337.672 511.125C337.672 510.568 337.477 510.138 337.086 509.836C336.695 509.529 335.987 509.227 334.961 508.93ZM342.844 503.5V505.547H344.422V506.664H342.844V511.906C342.844 512.245 342.914 512.5 343.055 512.672C343.195 512.839 343.435 512.922 343.773 512.922C343.94 512.922 344.169 512.891 344.461 512.828V514C344.081 514.104 343.711 514.156 343.352 514.156C342.706 514.156 342.219 513.961 341.891 513.57C341.562 513.18 341.398 512.625 341.398 511.906V506.664H339.859V505.547H341.398V503.5H342.844ZM349.625 514.156C348.479 514.156 347.547 513.781 346.828 513.031C346.109 512.276 345.75 511.268 345.75 510.008V509.742C345.75 508.904 345.909 508.156 346.227 507.5C346.549 506.839 346.997 506.323 347.57 505.953C348.148 505.578 348.773 505.391 349.445 505.391C350.544 505.391 351.398 505.753 352.008 506.477C352.617 507.201 352.922 508.237 352.922 509.586V510.188H347.195C347.216 511.021 347.458 511.695 347.922 512.211C348.391 512.721 348.984 512.977 349.703 512.977C350.214 512.977 350.646 512.872 351 512.664C351.354 512.456 351.664 512.18 351.93 511.836L352.812 512.523C352.104 513.612 351.042 514.156 349.625 514.156ZM349.445 506.578C348.862 506.578 348.372 506.792 347.977 507.219C347.581 507.641 347.336 508.234 347.242 509H351.477V508.891C351.435 508.156 351.237 507.589 350.883 507.188C350.529 506.781 350.049 506.578 349.445 506.578ZM361.742 509.867C361.742 511.154 361.448 512.19 360.859 512.977C360.271 513.763 359.474 514.156 358.469 514.156C357.443 514.156 356.635 513.831 356.047 513.18V517.25H354.602V505.547H355.922L355.992 506.484C356.581 505.755 357.398 505.391 358.445 505.391C359.461 505.391 360.263 505.773 360.852 506.539C361.445 507.305 361.742 508.37 361.742 509.734V509.867ZM360.297 509.703C360.297 508.75 360.094 507.997 359.688 507.445C359.281 506.893 358.724 506.617 358.016 506.617C357.141 506.617 356.484 507.005 356.047 507.781V511.82C356.479 512.591 357.141 512.977 358.031 512.977C358.724 512.977 359.273 512.703 359.68 512.156C360.091 511.604 360.297 510.786 360.297 509.703ZM368.508 511.758C368.508 511.367 368.359 511.065 368.062 510.852C367.771 510.633 367.258 510.445 366.523 510.289C365.794 510.133 365.214 509.945 364.781 509.727C364.354 509.508 364.036 509.247 363.828 508.945C363.625 508.643 363.523 508.284 363.523 507.867C363.523 507.174 363.815 506.589 364.398 506.109C364.987 505.63 365.737 505.391 366.648 505.391C367.607 505.391 368.383 505.638 368.977 506.133C369.576 506.628 369.875 507.26 369.875 508.031H368.422C368.422 507.635 368.253 507.294 367.914 507.008C367.581 506.721 367.159 506.578 366.648 506.578C366.122 506.578 365.711 506.693 365.414 506.922C365.117 507.151 364.969 507.451 364.969 507.82C364.969 508.169 365.107 508.432 365.383 508.609C365.659 508.786 366.156 508.956 366.875 509.117C367.599 509.279 368.185 509.471 368.633 509.695C369.081 509.919 369.411 510.19 369.625 510.508C369.844 510.82 369.953 511.203 369.953 511.656C369.953 512.411 369.651 513.018 369.047 513.477C368.443 513.93 367.659 514.156 366.695 514.156C366.018 514.156 365.419 514.036 364.898 513.797C364.378 513.557 363.969 513.224 363.672 512.797C363.38 512.365 363.234 511.898 363.234 511.398H364.68C364.706 511.883 364.898 512.268 365.258 512.555C365.622 512.836 366.102 512.977 366.695 512.977C367.242 512.977 367.68 512.867 368.008 512.648C368.341 512.424 368.508 512.128 368.508 511.758Z" fill="#959BA2"/>
<path d="M200.398 510.18H201.977V511.359H200.398V514H198.945V511.359H193.766V510.508L198.859 502.625H200.398V510.18ZM195.406 510.18H198.945V504.602L198.773 504.914L195.406 510.18ZM203.461 513.242C203.461 512.992 203.534 512.784 203.68 512.617C203.831 512.451 204.055 512.367 204.352 512.367C204.648 512.367 204.872 512.451 205.023 512.617C205.18 512.784 205.258 512.992 205.258 513.242C205.258 513.482 205.18 513.682 205.023 513.844C204.872 514.005 204.648 514.086 204.352 514.086C204.055 514.086 203.831 514.005 203.68 513.844C203.534 513.682 203.461 513.482 203.461 513.242ZM213.602 510.18H215.18V511.359H213.602V514H212.148V511.359H206.969V510.508L212.062 502.625H213.602V510.18ZM208.609 510.18H212.148V504.602L211.977 504.914L208.609 510.18ZM222.961 510.086L222.055 511.031V514H220.609V502H222.055V509.258L222.828 508.328L225.461 505.547H227.219L223.93 509.078L227.602 514H225.906L222.961 510.086ZM230.07 505.547L230.109 506.484C230.729 505.755 231.565 505.391 232.617 505.391C233.799 505.391 234.604 505.844 235.031 506.75C235.312 506.344 235.677 506.016 236.125 505.766C236.578 505.516 237.112 505.391 237.727 505.391C239.581 505.391 240.523 506.372 240.555 508.336V514H239.109V508.422C239.109 507.818 238.971 507.367 238.695 507.07C238.419 506.768 237.956 506.617 237.305 506.617C236.768 506.617 236.323 506.779 235.969 507.102C235.615 507.419 235.409 507.849 235.352 508.391V514H233.898V508.461C233.898 507.232 233.297 506.617 232.094 506.617C231.146 506.617 230.497 507.021 230.148 507.828V514H228.703V505.547H230.07Z" fill="#959BA2"/>
<defs>
<filter id="filter0_d" x="0" y="160" width="435" height="454" filterUnits="userSpaceOnUse" color-interpolation-filters="sRGB">
<feFlood flood-opacity="0" result="BackgroundImageFix"/>
<feColorMatrix in="SourceAlpha" type="matrix" values="0 0 0 0 0 0 0 0 0 0 0 0 0 0 0 0 0 0 127 0"/>
<feOffset dy="18"/>
<feGaussianBlur stdDeviation="21"/>
<feColorMatrix type="matrix" values="0 0 0 0 0 0 0 0 0 0 0 0 0 0 0 0 0 0 0.21 0"/>
<feBlend mode="normal" in2="BackgroundImageFix" result="effect1_dropShadow"/>
<feBlend mode="normal" in="SourceGraphic" in2="effect1_dropShadow" result="shape"/>
</filter>
<linearGradient id="paint0_linear" x1="358" y1="64" x2="371" y2="-3" gradientUnits="userSpaceOnUse">
<stop stop-color="#1E57EA"/>
<stop offset="1" stop-color="#2196F3" stop-opacity="0.79"/>
</linearGradient>
<linearGradient id="paint1_linear" x1="167" y1="5.56877" x2="49.2428" y2="26.4902" gradientUnits="userSpaceOnUse">
<stop stop-color="#102B58"/>
<stop offset="1" stop-color="#5F5F87"/>
</linearGradient>
<linearGradient id="paint2_linear" x1="40.3333" y1="27" x2="160.639" y2="0.632181" gradientUnits="userSpaceOnUse">
<stop stop-color="#D2A7BF"/>
<stop offset="0.143646" stop-color="white" stop-opacity="0"/>
</linearGradient>
</defs>
</svg>
