<svg width="395" height="78" viewBox="0 0 395 78" fill="none" xmlns="http://www.w3.org/2000/svg">
<g filter="url(#filter0_d)">
<rect x="16" y="12" width="363" height="46" rx="23" fill="white"/>
<path d="M52.6667 37.6667H51.6133L51.24 37.3067C52.5467 35.7867 53.3333 33.8133 53.3333 31.6667C53.3333 26.88 49.4533 23 44.6667 23C39.88 23 36 26.88 36 31.6667C36 36.4533 39.88 40.3333 44.6667 40.3333C46.8133 40.3333 48.7867 39.5467 50.3067 38.24L50.6667 38.6133V39.6667L57.3333 46.32L59.32 44.3333L52.6667 37.6667ZM44.6667 37.6667C41.3467 37.6667 38.6667 34.9867 38.6667 31.6667C38.6667 28.3467 41.3467 25.6667 44.6667 25.6667C47.9867 25.6667 50.6667 28.3467 50.6667 31.6667C50.6667 34.9867 47.9867 37.6667 44.6667 37.6667Z" fill="black" fill-opacity="0.54"/>
</g>
<defs>
<filter id="filter0_d" x="0" y="0" width="395" height="78" filterUnits="userSpaceOnUse" color-interpolation-filters="sRGB">
<feFlood flood-opacity="0" result="BackgroundImageFix"/>
<feColorMatrix in="SourceAlpha" type="matrix" values="0 0 0 0 0 0 0 0 0 0 0 0 0 0 0 0 0 0 127 0"/>
<feOffset dy="4"/>
<feGaussianBlur stdDeviation="8"/>
<feColorMatrix type="matrix" values="0 0 0 0 0 0 0 0 0 0 0 0 0 0 0 0 0 0 0.25 0"/>
<feBlend mode="normal" in2="BackgroundImageFix" result="effect1_dropShadow"/>
<feBlend mode="normal" in="SourceGraphic" in2="effect1_dropShadow" result="shape"/>
</filter>
</defs>
</svg>
