<svg width="117" height="64" viewBox="0 0 117 64" fill="none" xmlns="http://www.w3.org/2000/svg">
<path d="M53 32C53 14.3269 67.3269 -4.34256e-06 85 -2.79753e-06C102.673 -1.2525e-06 117 14.3269 117 32C117 49.6731 102.673 64 85 64C67.3269 64 53 49.6731 53 32ZM111.222 32C111.222 17.5182 99.4818 5.77847 85 5.77847C70.5183 5.77847 58.7785 17.5182 58.7785 32C58.7785 46.4817 70.5183 58.2215 85 58.2215C99.4818 58.2215 111.222 46.4818 111.222 32Z" fill="#DADADA"/>
<path d="M85 -2.79753e-06C90.3918 -2.32616e-06 95.6962 1.36238 100.421 3.96065C105.145 6.55891 109.136 10.3088 112.024 14.8622C114.912 19.4155 116.602 24.6247 116.938 30.006C117.274 35.3873 116.245 40.7662 113.946 45.6434C111.647 50.5206 108.153 54.7378 103.788 57.9035C99.4239 61.0693 94.3302 63.0808 88.9803 63.7515C83.6304 64.4221 78.1977 63.7301 73.1868 61.7397C68.1759 59.7492 63.7491 56.5249 60.3176 52.3661L64.7746 48.6884C67.5865 52.0963 71.2139 54.7383 75.32 56.3694C79.4261 58.0004 83.8777 58.5674 88.2615 58.0179C92.6454 57.4684 96.8193 55.82 100.396 53.226C103.972 50.6319 106.835 47.1762 108.719 43.1797C110.603 39.1833 111.446 34.7756 111.171 30.3661C110.895 25.9565 109.51 21.688 107.144 17.9569C104.778 14.2257 101.507 11.153 97.636 9.02391C93.7647 6.89483 89.4182 5.77847 85 5.77847L85 -2.79753e-06Z" fill="#2196F3"/>
<path d="M80.9258 22.9258V24.7656H80.5273C78.8398 24.7968 77.4961 25.2968 76.4961 26.2656C75.4961 27.2343 74.918 28.5976 74.7617 30.3554C75.6602 29.3242 76.8867 28.8086 78.4414 28.8086C79.9258 28.8086 81.1094 29.332 81.9922 30.3789C82.8828 31.4258 83.3281 32.7773 83.3281 34.4336C83.3281 36.1914 82.8477 37.5976 81.8867 38.6523C80.9336 39.707 79.6523 40.2343 78.043 40.2343C76.4102 40.2343 75.0859 39.6093 74.0703 38.3593C73.0547 37.1015 72.5469 35.4843 72.5469 33.5078V32.6758C72.5469 29.5351 73.2148 27.1367 74.5508 25.4804C75.8945 23.8164 77.8906 22.9648 80.5391 22.9258H80.9258ZM78.0781 30.6133C77.3359 30.6133 76.6523 30.8359 76.0273 31.2812C75.4023 31.7265 74.9688 32.2851 74.7266 32.957V33.7539C74.7266 35.1601 75.043 36.2929 75.6758 37.1523C76.3086 38.0117 77.0977 38.4414 78.043 38.4414C79.0195 38.4414 79.7852 38.082 80.3398 37.3633C80.9023 36.6445 81.1836 35.7031 81.1836 34.539C81.1836 33.3672 80.8984 32.4218 80.3281 31.7031C79.7656 30.9765 79.0156 30.6133 78.0781 30.6133ZM96.9102 24.1562L89.8438 40H87.5703L94.6133 24.7187H85.3789V22.9375H96.9102V24.1562Z" fill="#2196F3"/>
<circle cx="16.5" cy="32.5" r="15.5" stroke="#FFC107" stroke-width="2"/>
<path d="M12.2344 31.8984H15.4062V33.2656H12.2344V36.8594H10.7812V33.2656H7.60938V31.8984H10.7812V28.5781H12.2344V31.8984ZM22.6953 26.6172V27.8438H22.4297C21.3047 27.8646 20.4089 28.1979 19.7422 28.8438C19.0755 29.4896 18.6901 30.3984 18.5859 31.5703C19.1849 30.8828 20.0026 30.5391 21.0391 30.5391C22.0286 30.5391 22.8177 30.888 23.4062 31.5859C24 32.2839 24.2969 33.1849 24.2969 34.2891C24.2969 35.4609 23.9766 36.3984 23.3359 37.1016C22.7005 37.8047 21.8464 38.1562 20.7734 38.1562C19.6849 38.1562 18.8021 37.7396 18.125 36.9062C17.4479 36.0677 17.1094 34.9896 17.1094 33.6719V33.1172C17.1094 31.0234 17.5547 29.4245 18.4453 28.3203C19.3411 27.2109 20.6719 26.6432 22.4375 26.6172H22.6953ZM20.7969 31.7422C20.3021 31.7422 19.8464 31.8906 19.4297 32.1875C19.013 32.4844 18.724 32.8568 18.5625 33.3047V33.8359C18.5625 34.7734 18.7734 35.5286 19.1953 36.1016C19.6172 36.6745 20.1432 36.9609 20.7734 36.9609C21.4245 36.9609 21.9349 36.7214 22.3047 36.2422C22.6797 35.763 22.8672 35.1354 22.8672 34.3594C22.8672 33.5781 22.6771 32.9479 22.2969 32.4688C21.9219 31.9844 21.4219 31.7422 20.7969 31.7422Z" fill="#FFC107"/>
</svg>
