<svg width="435" height="614" viewBox="0 0 435 614" fill="none" xmlns="http://www.w3.org/2000/svg">
<g filter="url(#filter0_d)">
<path d="M42 184H393V542C393 548.627 387.627 554 381 554H54C47.3726 554 42 548.627 42 542V184Z" fill="white"/>
</g>
<rect x="42" width="351" height="184" fill="white"/>
<path d="M326 32C326 14.3269 340.327 -4.34256e-06 358 -2.79753e-06C375.673 -1.2525e-06 390 14.3269 390 32C390 49.6731 375.673 64 358 64C340.327 64 326 49.6731 326 32ZM384.222 32C384.222 17.5182 372.482 5.77847 358 5.77847C343.518 5.77847 331.778 17.5182 331.778 32C331.778 46.4817 343.518 58.2215 358 58.2215C372.482 58.2215 384.222 46.4818 384.222 32Z" fill="#F2F2F2"/>
<path d="M358 -2.79753e-06C363.392 -2.09048e-06 368.696 1.36238 373.421 3.96065C378.145 6.55891 382.136 10.3088 385.024 14.8622C387.912 19.4155 389.602 24.6247 389.938 30.006C390.274 35.3873 389.245 40.7662 386.946 45.6434C384.647 50.5206 381.153 54.7378 376.788 57.9035C372.424 61.0693 367.33 63.0808 361.98 63.7515C356.63 64.4221 351.198 63.7301 346.187 61.7397C341.176 59.7492 336.749 56.5249 333.318 52.3661L337.775 48.6884C340.587 52.0963 344.214 54.7383 348.32 56.3694C352.426 58.0004 356.878 58.5674 361.262 58.0179C365.645 57.4684 369.819 55.82 373.396 53.226C376.972 50.6319 379.835 47.1762 381.719 43.1797C383.603 39.1833 384.446 34.7756 384.171 30.3661C383.895 25.9565 382.51 21.688 380.144 17.9569C377.778 14.2257 374.507 11.153 370.636 9.02391C366.765 6.89483 362.418 5.77847 358 5.77847L358 -2.79753e-06Z" fill="url(#paint0_linear)"/>
<path d="M353.926 22.9258V24.7656H353.527C351.84 24.7969 350.496 25.2969 349.496 26.2656C348.496 27.2344 347.918 28.5977 347.762 30.3555C348.66 29.3242 349.887 28.8086 351.441 28.8086C352.926 28.8086 354.109 29.332 354.992 30.3789C355.883 31.4258 356.328 32.7773 356.328 34.4336C356.328 36.1914 355.848 37.5977 354.887 38.6523C353.934 39.707 352.652 40.2344 351.043 40.2344C349.41 40.2344 348.086 39.6094 347.07 38.3594C346.055 37.1016 345.547 35.4844 345.547 33.5078V32.6758C345.547 29.5352 346.215 27.1367 347.551 25.4805C348.895 23.8164 350.891 22.9648 353.539 22.9258H353.926ZM351.078 30.6133C350.336 30.6133 349.652 30.8359 349.027 31.2812C348.402 31.7266 347.969 32.2852 347.727 32.957V33.7539C347.727 35.1602 348.043 36.293 348.676 37.1523C349.309 38.0117 350.098 38.4414 351.043 38.4414C352.02 38.4414 352.785 38.082 353.34 37.3633C353.902 36.6445 354.184 35.7031 354.184 34.5391C354.184 33.3672 353.898 32.4219 353.328 31.7031C352.766 30.9766 352.016 30.6133 351.078 30.6133ZM369.91 24.1562L362.844 40H360.57L367.613 24.7188H358.379V22.9375H369.91V24.1562Z" fill="#959BA2"/>
<circle cx="301.5" cy="32.5" r="15.5" stroke="#FFC107" stroke-width="2"/>
<path d="M297.234 31.8984H300.406V33.2656H297.234V36.8594H295.781V33.2656H292.609V31.8984H295.781V28.5781H297.234V31.8984ZM307.695 26.6172V27.8438H307.43C306.305 27.8646 305.409 28.1979 304.742 28.8438C304.076 29.4896 303.69 30.3984 303.586 31.5703C304.185 30.8828 305.003 30.5391 306.039 30.5391C307.029 30.5391 307.818 30.888 308.406 31.5859C309 32.2839 309.297 33.1849 309.297 34.2891C309.297 35.4609 308.977 36.3984 308.336 37.1016C307.701 37.8047 306.846 38.1562 305.773 38.1562C304.685 38.1562 303.802 37.7396 303.125 36.9062C302.448 36.0677 302.109 34.9896 302.109 33.6719V33.1172C302.109 31.0234 302.555 29.4245 303.445 28.3203C304.341 27.2109 305.672 26.6432 307.438 26.6172H307.695ZM305.797 31.7422C305.302 31.7422 304.846 31.8906 304.43 32.1875C304.013 32.4844 303.724 32.8568 303.562 33.3047V33.8359C303.562 34.7734 303.773 35.5286 304.195 36.1016C304.617 36.6745 305.143 36.9609 305.773 36.9609C306.424 36.9609 306.935 36.7214 307.305 36.2422C307.68 35.763 307.867 35.1354 307.867 34.3594C307.867 33.5781 307.677 32.9479 307.297 32.4688C306.922 31.9844 306.422 31.7422 305.797 31.7422Z" fill="#FFC107"/>
<path d="M42.4102 5.24219H45.5625L47.3555 17.2773L51.7148 5.24219H54.7031L58.7812 16.8086L60.6797 5.24219H63.7383L60.5859 22H57.6328L53.0273 8.85156L48.082 22H45.1641L42.4102 5.24219ZM71.423 13.5742C71.423 17.4727 73.1534 19.4219 76.6144 19.4219C79.9894 19.4219 81.6769 17.4727 81.6769 13.5742C81.6769 9.73828 79.9894 7.82031 76.6144 7.82031C73.1534 7.82031 71.423 9.73828 71.423 13.5742ZM68.2003 13.6445C68.2003 7.96484 71.005 5.125 76.6144 5.125C82.1378 5.125 84.8995 7.96484 84.8995 13.6445C84.8995 19.293 82.1378 22.1172 76.6144 22.1172C71.255 22.1172 68.4503 19.293 68.2003 13.6445ZM90.7209 22V5.24219H93.8264L102.674 17.4531V5.24219H105.662V22H102.557L93.7092 9.53125V22H90.7209ZM118.632 19.3047C122.109 19.3047 123.847 17.2578 123.847 13.1641C123.847 9.67969 122.109 7.9375 118.632 7.9375H115.175V19.3047H118.632ZM112.07 22V5.24219H118.632C124.179 5.24219 126.952 7.88281 126.952 13.1641C126.952 19.0547 124.179 22 118.632 22H112.07ZM143.954 5.24219V7.91406H135.563V12.1328H143.555V14.9102H135.528V19.3047H144.118V22H132.481V5.24219H143.954ZM149.869 21.9766V5.24219H157.486C160.908 5.24219 162.619 6.73828 162.619 9.73047C162.619 11.7539 161.287 13.4297 158.623 14.7578L163.931 22H160.017L154.92 14.6992V13.2812C157.888 12.7734 159.373 11.6211 159.373 9.82422C159.373 8.58984 158.677 7.97266 157.287 7.97266H153.033V21.9766H149.869Z" fill="#0B1927"/>
<path d="M42.4102 5.24219H45.5625L47.3555 17.2773L51.7148 5.24219H54.7031L58.7812 16.8086L60.6797 5.24219H63.7383L60.5859 22H57.6328L53.0273 8.85156L48.082 22H45.1641L42.4102 5.24219ZM71.423 13.5742C71.423 17.4727 73.1534 19.4219 76.6144 19.4219C79.9894 19.4219 81.6769 17.4727 81.6769 13.5742C81.6769 9.73828 79.9894 7.82031 76.6144 7.82031C73.1534 7.82031 71.423 9.73828 71.423 13.5742ZM68.2003 13.6445C68.2003 7.96484 71.005 5.125 76.6144 5.125C82.1378 5.125 84.8995 7.96484 84.8995 13.6445C84.8995 19.293 82.1378 22.1172 76.6144 22.1172C71.255 22.1172 68.4503 19.293 68.2003 13.6445ZM90.7209 22V5.24219H93.8264L102.674 17.4531V5.24219H105.662V22H102.557L93.7092 9.53125V22H90.7209ZM118.632 19.3047C122.109 19.3047 123.847 17.2578 123.847 13.1641C123.847 9.67969 122.109 7.9375 118.632 7.9375H115.175V19.3047H118.632ZM112.07 22V5.24219H118.632C124.179 5.24219 126.952 7.88281 126.952 13.1641C126.952 19.0547 124.179 22 118.632 22H112.07ZM143.954 5.24219V7.91406H135.563V12.1328H143.555V14.9102H135.528V19.3047H144.118V22H132.481V5.24219H143.954ZM149.869 21.9766V5.24219H157.486C160.908 5.24219 162.619 6.73828 162.619 9.73047C162.619 11.7539 161.287 13.4297 158.623 14.7578L163.931 22H160.017L154.92 14.6992V13.2812C157.888 12.7734 159.373 11.6211 159.373 9.82422C159.373 8.58984 158.677 7.97266 157.287 7.97266H153.033V21.9766H149.869Z" fill="url(#paint1_linear)" fill-opacity="0.5"/>
<path d="M42.4102 5.24219H45.5625L47.3555 17.2773L51.7148 5.24219H54.7031L58.7812 16.8086L60.6797 5.24219H63.7383L60.5859 22H57.6328L53.0273 8.85156L48.082 22H45.1641L42.4102 5.24219ZM71.423 13.5742C71.423 17.4727 73.1534 19.4219 76.6144 19.4219C79.9894 19.4219 81.6769 17.4727 81.6769 13.5742C81.6769 9.73828 79.9894 7.82031 76.6144 7.82031C73.1534 7.82031 71.423 9.73828 71.423 13.5742ZM68.2003 13.6445C68.2003 7.96484 71.005 5.125 76.6144 5.125C82.1378 5.125 84.8995 7.96484 84.8995 13.6445C84.8995 19.293 82.1378 22.1172 76.6144 22.1172C71.255 22.1172 68.4503 19.293 68.2003 13.6445ZM90.7209 22V5.24219H93.8264L102.674 17.4531V5.24219H105.662V22H102.557L93.7092 9.53125V22H90.7209ZM118.632 19.3047C122.109 19.3047 123.847 17.2578 123.847 13.1641C123.847 9.67969 122.109 7.9375 118.632 7.9375H115.175V19.3047H118.632ZM112.07 22V5.24219H118.632C124.179 5.24219 126.952 7.88281 126.952 13.1641C126.952 19.0547 124.179 22 118.632 22H112.07ZM143.954 5.24219V7.91406H135.563V12.1328H143.555V14.9102H135.528V19.3047H144.118V22H132.481V5.24219H143.954ZM149.869 21.9766V5.24219H157.486C160.908 5.24219 162.619 6.73828 162.619 9.73047C162.619 11.7539 161.287 13.4297 158.623 14.7578L163.931 22H160.017L154.92 14.6992V13.2812C157.888 12.7734 159.373 11.6211 159.373 9.82422C159.373 8.58984 158.677 7.97266 157.287 7.97266H153.033V21.9766H149.869Z" fill="url(#paint2_linear)" fill-opacity="0.06"/>
<defs>
<filter id="filter0_d" x="0" y="160" width="435" height="454" filterUnits="userSpaceOnUse" color-interpolation-filters="sRGB">
<feFlood flood-opacity="0" result="BackgroundImageFix"/>
<feColorMatrix in="SourceAlpha" type="matrix" values="0 0 0 0 0 0 0 0 0 0 0 0 0 0 0 0 0 0 127 0"/>
<feOffset dy="18"/>
<feGaussianBlur stdDeviation="21"/>
<feColorMatrix type="matrix" values="0 0 0 0 0 0 0 0 0 0 0 0 0 0 0 0 0 0 0.21 0"/>
<feBlend mode="normal" in2="BackgroundImageFix" result="effect1_dropShadow"/>
<feBlend mode="normal" in="SourceGraphic" in2="effect1_dropShadow" result="shape"/>
</filter>
<linearGradient id="paint0_linear" x1="358" y1="64" x2="371" y2="-3" gradientUnits="userSpaceOnUse">
<stop stop-color="#1E57EA"/>
<stop offset="1" stop-color="#2196F3" stop-opacity="0.79"/>
</linearGradient>
<linearGradient id="paint1_linear" x1="167" y1="5.56877" x2="49.2428" y2="26.4902" gradientUnits="userSpaceOnUse">
<stop stop-color="#102B58"/>
<stop offset="1" stop-color="#5F5F87"/>
</linearGradient>
<linearGradient id="paint2_linear" x1="40.3333" y1="27" x2="160.639" y2="0.632181" gradientUnits="userSpaceOnUse">
<stop stop-color="#D2A7BF"/>
<stop offset="0.143646" stop-color="white" stop-opacity="0"/>
</linearGradient>
</defs>
</svg>
