<svg width="235" height="271" viewBox="0 0 235 271" fill="none" xmlns="http://www.w3.org/2000/svg">
<path d="M14.2578 187.789C10.3984 186.68 7.58594 185.32 5.82031 183.711C4.07031 182.086 3.19531 180.086 3.19531 177.711C3.19531 175.023 4.26562 172.805 6.40625 171.055C8.5625 169.289 11.3594 168.406 14.7969 168.406C17.1406 168.406 19.2266 168.859 21.0547 169.766C22.8984 170.672 24.3203 171.922 25.3203 173.516C26.3359 175.109 26.8438 176.852 26.8438 178.742H22.3203C22.3203 176.68 21.6641 175.062 20.3516 173.891C19.0391 172.703 17.1875 172.109 14.7969 172.109C12.5781 172.109 10.8438 172.602 9.59375 173.586C8.35938 174.555 7.74219 175.906 7.74219 177.641C7.74219 179.031 8.32812 180.211 9.5 181.18C10.6875 182.133 12.6953 183.008 15.5234 183.805C18.3672 184.602 20.5859 185.484 22.1797 186.453C23.7891 187.406 24.9766 188.523 25.7422 189.805C26.5234 191.086 26.9141 192.594 26.9141 194.328C26.9141 197.094 25.8359 199.312 23.6797 200.984C21.5234 202.641 18.6406 203.469 15.0312 203.469C12.6875 203.469 10.5 203.023 8.46875 202.133C6.4375 201.227 4.86719 199.992 3.75781 198.43C2.66406 196.867 2.11719 195.094 2.11719 193.109H6.64062C6.64062 195.172 7.39844 196.805 8.91406 198.008C10.4453 199.195 12.4844 199.789 15.0312 199.789C17.4062 199.789 19.2266 199.305 20.4922 198.336C21.7578 197.367 22.3906 196.047 22.3906 194.375C22.3906 192.703 21.8047 191.414 20.6328 190.508C19.4609 189.586 17.3359 188.68 14.2578 187.789ZM36.7344 203H32.3984V177.641H36.7344V203ZM32.0469 170.914C32.0469 170.211 32.2578 169.617 32.6797 169.133C33.1172 168.648 33.7578 168.406 34.6016 168.406C35.4453 168.406 36.0859 168.648 36.5234 169.133C36.9609 169.617 37.1797 170.211 37.1797 170.914C37.1797 171.617 36.9609 172.203 36.5234 172.672C36.0859 173.141 35.4453 173.375 34.6016 173.375C33.7578 173.375 33.1172 173.141 32.6797 172.672C32.2578 172.203 32.0469 171.617 32.0469 170.914ZM48.4062 203H44.0703V167H48.4062V203ZM63.7344 197.117L70.0156 177.641H74.4453L65.3516 203H62.0469L52.8594 177.641H57.2891L63.7344 197.117ZM88.8125 203.469C85.375 203.469 82.5781 202.344 80.4219 200.094C78.2656 197.828 77.1875 194.805 77.1875 191.023V190.227C77.1875 187.711 77.6641 185.469 78.6172 183.5C79.5859 181.516 80.9297 179.969 82.6484 178.859C84.3828 177.734 86.2578 177.172 88.2734 177.172C91.5703 177.172 94.1328 178.258 95.9609 180.43C97.7891 182.602 98.7031 185.711 98.7031 189.758V191.562H81.5234C81.5859 194.062 82.3125 196.086 83.7031 197.633C85.1094 199.164 86.8906 199.93 89.0469 199.93C90.5781 199.93 91.875 199.617 92.9375 198.992C94 198.367 94.9297 197.539 95.7266 196.508L98.375 198.57C96.25 201.836 93.0625 203.469 88.8125 203.469ZM88.2734 180.734C86.5234 180.734 85.0547 181.375 83.8672 182.656C82.6797 183.922 81.9453 185.703 81.6641 188H94.3672V187.672C94.2422 185.469 93.6484 183.766 92.5859 182.562C91.5234 181.344 90.0859 180.734 88.2734 180.734ZM116 181.531C115.344 181.422 114.633 181.367 113.867 181.367C111.023 181.367 109.094 182.578 108.078 185V203H103.742V177.641H107.961L108.031 180.57C109.453 178.305 111.469 177.172 114.078 177.172C114.922 177.172 115.562 177.281 116 177.5V181.531ZM151.414 187.93H137.094V203H132.594V168.875H153.734V172.578H137.094V184.25H151.414V187.93ZM168.453 203.469C165.016 203.469 162.219 202.344 160.062 200.094C157.906 197.828 156.828 194.805 156.828 191.023V190.227C156.828 187.711 157.305 185.469 158.258 183.5C159.227 181.516 160.57 179.969 162.289 178.859C164.023 177.734 165.898 177.172 167.914 177.172C171.211 177.172 173.773 178.258 175.602 180.43C177.43 182.602 178.344 185.711 178.344 189.758V191.562H161.164C161.227 194.062 161.953 196.086 163.344 197.633C164.75 199.164 166.531 199.93 168.688 199.93C170.219 199.93 171.516 199.617 172.578 198.992C173.641 198.367 174.57 197.539 175.367 196.508L178.016 198.57C175.891 201.836 172.703 203.469 168.453 203.469ZM167.914 180.734C166.164 180.734 164.695 181.375 163.508 182.656C162.32 183.922 161.586 185.703 161.305 188H174.008V187.672C173.883 185.469 173.289 183.766 172.227 182.562C171.164 181.344 169.727 180.734 167.914 180.734ZM195.641 181.531C194.984 181.422 194.273 181.367 193.508 181.367C190.664 181.367 188.734 182.578 187.719 185V203H183.383V177.641H187.602L187.672 180.57C189.094 178.305 191.109 177.172 193.719 177.172C194.562 177.172 195.203 177.281 195.641 177.5V181.531ZM203.75 177.641L203.891 180.828C205.828 178.391 208.359 177.172 211.484 177.172C216.844 177.172 219.547 180.195 219.594 186.242V203H215.258V186.219C215.242 184.391 214.82 183.039 213.992 182.164C213.18 181.289 211.906 180.852 210.172 180.852C208.766 180.852 207.531 181.227 206.469 181.977C205.406 182.727 204.578 183.711 203.984 184.93V203H199.648V177.641H203.75ZM85.1797 243.93H70.8594V259H66.3594V224.875H87.5V228.578H70.8594V240.25H85.1797V243.93ZM107.07 259C106.82 258.5 106.617 257.609 106.461 256.328C104.445 258.422 102.039 259.469 99.2422 259.469C96.7422 259.469 94.6875 258.766 93.0781 257.359C91.4844 255.938 90.6875 254.141 90.6875 251.969C90.6875 249.328 91.6875 247.281 93.6875 245.828C95.7031 244.359 98.5312 243.625 102.172 243.625H106.391V241.633C106.391 240.117 105.938 238.914 105.031 238.023C104.125 237.117 102.789 236.664 101.023 236.664C99.4766 236.664 98.1797 237.055 97.1328 237.836C96.0859 238.617 95.5625 239.562 95.5625 240.672H91.2031C91.2031 239.406 91.6484 238.188 92.5391 237.016C93.4453 235.828 94.6641 234.891 96.1953 234.203C97.7422 233.516 99.4375 233.172 101.281 233.172C104.203 233.172 106.492 233.906 108.148 235.375C109.805 236.828 110.664 238.836 110.727 241.398V253.07C110.727 255.398 111.023 257.25 111.617 258.625V259H107.07ZM99.875 255.695C101.234 255.695 102.523 255.344 103.742 254.641C104.961 253.938 105.844 253.023 106.391 251.898V246.695H102.992C97.6797 246.695 95.0234 248.25 95.0234 251.359C95.0234 252.719 95.4766 253.781 96.3828 254.547C97.2891 255.312 98.4531 255.695 99.875 255.695ZM129.781 237.531C129.125 237.422 128.414 237.367 127.648 237.367C124.805 237.367 122.875 238.578 121.859 241V259H117.523V233.641H121.742L121.812 236.57C123.234 234.305 125.25 233.172 127.859 233.172C128.703 233.172 129.344 233.281 129.781 233.5V237.531ZM137.867 233.641L137.984 236.453C139.844 234.266 142.352 233.172 145.508 233.172C149.055 233.172 151.469 234.531 152.75 237.25C153.594 236.031 154.688 235.047 156.031 234.297C157.391 233.547 158.992 233.172 160.836 233.172C166.398 233.172 169.227 236.117 169.32 242.008V259H164.984V242.266C164.984 240.453 164.57 239.102 163.742 238.211C162.914 237.305 161.523 236.852 159.57 236.852C157.961 236.852 156.625 237.336 155.562 238.305C154.5 239.258 153.883 240.547 153.711 242.172V259H149.352V242.383C149.352 238.695 147.547 236.852 143.938 236.852C141.094 236.852 139.148 238.062 138.102 240.484V259H133.766V233.641H137.867Z" fill="#959BA2"/>
<path d="M15.2188 118.504L19.6719 109.938H22.2266L16.3438 120.637V127H14.0938V120.637L8.21094 109.938H10.7891L15.2188 118.504ZM22.7422 120.543C22.7422 119.301 22.9844 118.184 23.4688 117.191C23.9609 116.199 24.6406 115.434 25.5078 114.895C26.3828 114.355 27.3789 114.086 28.4961 114.086C30.2227 114.086 31.6172 114.684 32.6797 115.879C33.75 117.074 34.2852 118.664 34.2852 120.648V120.801C34.2852 122.035 34.0469 123.145 33.5703 124.129C33.1016 125.105 32.4258 125.867 31.543 126.414C30.668 126.961 29.6602 127.234 28.5195 127.234C26.8008 127.234 25.4062 126.637 24.3359 125.441C23.2734 124.246 22.7422 122.664 22.7422 120.695V120.543ZM24.9219 120.801C24.9219 122.207 25.2461 123.336 25.8945 124.188C26.5508 125.039 27.4258 125.465 28.5195 125.465C29.6211 125.465 30.4961 125.035 31.1445 124.176C31.793 123.309 32.1172 122.098 32.1172 120.543C32.1172 119.152 31.7852 118.027 31.1211 117.168C30.4648 116.301 29.5898 115.867 28.4961 115.867C27.4258 115.867 26.5625 116.293 25.9062 117.145C25.25 117.996 24.9219 119.215 24.9219 120.801ZM44.832 125.746C43.9883 126.738 42.75 127.234 41.1172 127.234C39.7656 127.234 38.7344 126.844 38.0234 126.062C37.3203 125.273 36.9648 124.109 36.957 122.57V114.32H39.125V122.512C39.125 124.434 39.9062 125.395 41.4688 125.395C43.125 125.395 44.2266 124.777 44.7734 123.543V114.32H46.9414V127H44.8789L44.832 125.746ZM58.3672 115.855C59.3281 114.676 60.5781 114.086 62.1172 114.086C64.7969 114.086 66.1484 115.598 66.1719 118.621V127H64.0039V118.609C63.9961 117.695 63.7852 117.02 63.3711 116.582C62.9648 116.145 62.3281 115.926 61.4609 115.926C60.7578 115.926 60.1406 116.113 59.6094 116.488C59.0781 116.863 58.6641 117.355 58.3672 117.965V127H56.1992V109H58.3672V115.855ZM77.2461 127C77.1211 126.75 77.0195 126.305 76.9414 125.664C75.9336 126.711 74.7305 127.234 73.332 127.234C72.082 127.234 71.0547 126.883 70.25 126.18C69.4531 125.469 69.0547 124.57 69.0547 123.484C69.0547 122.164 69.5547 121.141 70.5547 120.414C71.5625 119.68 72.9766 119.312 74.7969 119.312H76.9062V118.316C76.9062 117.559 76.6797 116.957 76.2266 116.512C75.7734 116.059 75.1055 115.832 74.2227 115.832C73.4492 115.832 72.8008 116.027 72.2773 116.418C71.7539 116.809 71.4922 117.281 71.4922 117.836H69.3125C69.3125 117.203 69.5352 116.594 69.9805 116.008C70.4336 115.414 71.043 114.945 71.8086 114.602C72.582 114.258 73.4297 114.086 74.3516 114.086C75.8125 114.086 76.957 114.453 77.7852 115.188C78.6133 115.914 79.043 116.918 79.0742 118.199V124.035C79.0742 125.199 79.2227 126.125 79.5195 126.812V127H77.2461ZM73.6484 125.348C74.3281 125.348 74.9727 125.172 75.582 124.82C76.1914 124.469 76.6328 124.012 76.9062 123.449V120.848H75.207C72.5508 120.848 71.2227 121.625 71.2227 123.18C71.2227 123.859 71.4492 124.391 71.9023 124.773C72.3555 125.156 72.9375 125.348 73.6484 125.348ZM86.4688 124.059L89.6094 114.32H91.8242L87.2773 127H85.625L81.0312 114.32H83.2461L86.4688 124.059ZM99.0078 127.234C97.2891 127.234 95.8906 126.672 94.8125 125.547C93.7344 124.414 93.1953 122.902 93.1953 121.012V120.613C93.1953 119.355 93.4336 118.234 93.9102 117.25C94.3945 116.258 95.0664 115.484 95.9258 114.93C96.793 114.367 97.7305 114.086 98.7383 114.086C100.387 114.086 101.668 114.629 102.582 115.715C103.496 116.801 103.953 118.355 103.953 120.379V121.281H95.3633C95.3945 122.531 95.7578 123.543 96.4531 124.316C97.1562 125.082 98.0469 125.465 99.125 125.465C99.8906 125.465 100.539 125.309 101.07 124.996C101.602 124.684 102.066 124.27 102.465 123.754L103.789 124.785C102.727 126.418 101.133 127.234 99.0078 127.234ZM98.7383 115.867C97.8633 115.867 97.1289 116.188 96.5352 116.828C95.9414 117.461 95.5742 118.352 95.4336 119.5H101.785V119.336C101.723 118.234 101.426 117.383 100.895 116.781C100.363 116.172 99.6445 115.867 98.7383 115.867ZM111.898 120.555C111.898 118.609 112.359 117.047 113.281 115.867C114.203 114.68 115.41 114.086 116.902 114.086C118.387 114.086 119.562 114.594 120.43 115.609V109H122.598V127H120.605L120.5 125.641C119.633 126.703 118.426 127.234 116.879 127.234C115.41 127.234 114.211 126.633 113.281 125.43C112.359 124.227 111.898 122.656 111.898 120.719V120.555ZM114.066 120.801C114.066 122.238 114.363 123.363 114.957 124.176C115.551 124.988 116.371 125.395 117.418 125.395C118.793 125.395 119.797 124.777 120.43 123.543V117.719C119.781 116.523 118.785 115.926 117.441 115.926C116.379 115.926 115.551 116.336 114.957 117.156C114.363 117.977 114.066 119.191 114.066 120.801ZM128.328 127H126.16V114.32H128.328V127ZM125.984 110.957C125.984 110.605 126.09 110.309 126.301 110.066C126.52 109.824 126.84 109.703 127.262 109.703C127.684 109.703 128.004 109.824 128.223 110.066C128.441 110.309 128.551 110.605 128.551 110.957C128.551 111.309 128.441 111.602 128.223 111.836C128.004 112.07 127.684 112.188 127.262 112.188C126.84 112.188 126.52 112.07 126.301 111.836C126.09 111.602 125.984 111.309 125.984 110.957ZM139.191 123.637C139.191 123.051 138.969 122.598 138.523 122.277C138.086 121.949 137.316 121.668 136.215 121.434C135.121 121.199 134.25 120.918 133.602 120.59C132.961 120.262 132.484 119.871 132.172 119.418C131.867 118.965 131.715 118.426 131.715 117.801C131.715 116.762 132.152 115.883 133.027 115.164C133.91 114.445 135.035 114.086 136.402 114.086C137.84 114.086 139.004 114.457 139.895 115.199C140.793 115.941 141.242 116.891 141.242 118.047H139.062C139.062 117.453 138.809 116.941 138.301 116.512C137.801 116.082 137.168 115.867 136.402 115.867C135.613 115.867 134.996 116.039 134.551 116.383C134.105 116.727 133.883 117.176 133.883 117.73C133.883 118.254 134.09 118.648 134.504 118.914C134.918 119.18 135.664 119.434 136.742 119.676C137.828 119.918 138.707 120.207 139.379 120.543C140.051 120.879 140.547 121.285 140.867 121.762C141.195 122.23 141.359 122.805 141.359 123.484C141.359 124.617 140.906 125.527 140 126.215C139.094 126.895 137.918 127.234 136.473 127.234C135.457 127.234 134.559 127.055 133.777 126.695C132.996 126.336 132.383 125.836 131.938 125.195C131.5 124.547 131.281 123.848 131.281 123.098H133.449C133.488 123.824 133.777 124.402 134.316 124.832C134.863 125.254 135.582 125.465 136.473 125.465C137.293 125.465 137.949 125.301 138.441 124.973C138.941 124.637 139.191 124.191 139.191 123.637ZM149.27 125.465C150.043 125.465 150.719 125.23 151.297 124.762C151.875 124.293 152.195 123.707 152.258 123.004H154.309C154.27 123.73 154.02 124.422 153.559 125.078C153.098 125.734 152.48 126.258 151.707 126.648C150.941 127.039 150.129 127.234 149.27 127.234C147.543 127.234 146.168 126.66 145.145 125.512C144.129 124.355 143.621 122.777 143.621 120.777V120.414C143.621 119.18 143.848 118.082 144.301 117.121C144.754 116.16 145.402 115.414 146.246 114.883C147.098 114.352 148.102 114.086 149.258 114.086C150.68 114.086 151.859 114.512 152.797 115.363C153.742 116.215 154.246 117.32 154.309 118.68H152.258C152.195 117.859 151.883 117.188 151.32 116.664C150.766 116.133 150.078 115.867 149.258 115.867C148.156 115.867 147.301 116.266 146.691 117.062C146.09 117.852 145.789 118.996 145.789 120.496V120.906C145.789 122.367 146.09 123.492 146.691 124.281C147.293 125.07 148.152 125.465 149.27 125.465ZM156.172 120.543C156.172 119.301 156.414 118.184 156.898 117.191C157.391 116.199 158.07 115.434 158.938 114.895C159.812 114.355 160.809 114.086 161.926 114.086C163.652 114.086 165.047 114.684 166.109 115.879C167.18 117.074 167.715 118.664 167.715 120.648V120.801C167.715 122.035 167.477 123.145 167 124.129C166.531 125.105 165.855 125.867 164.973 126.414C164.098 126.961 163.09 127.234 161.949 127.234C160.23 127.234 158.836 126.637 157.766 125.441C156.703 124.246 156.172 122.664 156.172 120.695V120.543ZM158.352 120.801C158.352 122.207 158.676 123.336 159.324 124.188C159.98 125.039 160.855 125.465 161.949 125.465C163.051 125.465 163.926 125.035 164.574 124.176C165.223 123.309 165.547 122.098 165.547 120.543C165.547 119.152 165.215 118.027 164.551 117.168C163.895 116.301 163.02 115.867 161.926 115.867C160.855 115.867 159.992 116.293 159.336 117.145C158.68 117.996 158.352 119.215 158.352 120.801ZM174.43 124.059L177.57 114.32H179.785L175.238 127H173.586L168.992 114.32H171.207L174.43 124.059ZM186.969 127.234C185.25 127.234 183.852 126.672 182.773 125.547C181.695 124.414 181.156 122.902 181.156 121.012V120.613C181.156 119.355 181.395 118.234 181.871 117.25C182.355 116.258 183.027 115.484 183.887 114.93C184.754 114.367 185.691 114.086 186.699 114.086C188.348 114.086 189.629 114.629 190.543 115.715C191.457 116.801 191.914 118.355 191.914 120.379V121.281H183.324C183.355 122.531 183.719 123.543 184.414 124.316C185.117 125.082 186.008 125.465 187.086 125.465C187.852 125.465 188.5 125.309 189.031 124.996C189.562 124.684 190.027 124.27 190.426 123.754L191.75 124.785C190.688 126.418 189.094 127.234 186.969 127.234ZM186.699 115.867C185.824 115.867 185.09 116.188 184.496 116.828C183.902 117.461 183.535 118.352 183.395 119.5H189.746V119.336C189.684 118.234 189.387 117.383 188.855 116.781C188.324 116.172 187.605 115.867 186.699 115.867ZM200.562 116.266C200.234 116.211 199.879 116.184 199.496 116.184C198.074 116.184 197.109 116.789 196.602 118V127H194.434V114.32H196.543L196.578 115.785C197.289 114.652 198.297 114.086 199.602 114.086C200.023 114.086 200.344 114.141 200.562 114.25V116.266ZM207.594 127.234C205.875 127.234 204.477 126.672 203.398 125.547C202.32 124.414 201.781 122.902 201.781 121.012V120.613C201.781 119.355 202.02 118.234 202.496 117.25C202.98 116.258 203.652 115.484 204.512 114.93C205.379 114.367 206.316 114.086 207.324 114.086C208.973 114.086 210.254 114.629 211.168 115.715C212.082 116.801 212.539 118.355 212.539 120.379V121.281H203.949C203.98 122.531 204.344 123.543 205.039 124.316C205.742 125.082 206.633 125.465 207.711 125.465C208.477 125.465 209.125 125.309 209.656 124.996C210.188 124.684 210.652 124.27 211.051 123.754L212.375 124.785C211.312 126.418 209.719 127.234 207.594 127.234ZM207.324 115.867C206.449 115.867 205.715 116.188 205.121 116.828C204.527 117.461 204.16 118.352 204.02 119.5H210.371V119.336C210.309 118.234 210.012 117.383 209.48 116.781C208.949 116.172 208.23 115.867 207.324 115.867ZM214.531 120.555C214.531 118.609 214.992 117.047 215.914 115.867C216.836 114.68 218.043 114.086 219.535 114.086C221.02 114.086 222.195 114.594 223.062 115.609V109H225.23V127H223.238L223.133 125.641C222.266 126.703 221.059 127.234 219.512 127.234C218.043 127.234 216.844 126.633 215.914 125.43C214.992 124.227 214.531 122.656 214.531 120.719V120.555ZM216.699 120.801C216.699 122.238 216.996 123.363 217.59 124.176C218.184 124.988 219.004 125.395 220.051 125.395C221.426 125.395 222.43 124.777 223.062 123.543V117.719C222.414 116.523 221.418 115.926 220.074 115.926C219.012 115.926 218.184 116.336 217.59 117.156C216.996 117.977 216.699 119.191 216.699 120.801Z" fill="#959BA2"/>
<circle cx="116.5" cy="40.5" r="40.5" fill="#3883EE"/>
<path d="M116.5 22.0908C109.376 22.0908 103.614 27.8529 103.614 34.9772C103.614 44.642 116.5 58.909 116.5 58.909C116.5 58.909 129.386 44.642 129.386 34.9772C129.386 27.8529 123.624 22.0908 116.5 22.0908ZM116.5 39.5795C113.96 39.5795 111.898 37.5176 111.898 34.9772C111.898 32.4367 113.96 30.3749 116.5 30.3749C119.04 30.3749 121.102 32.4367 121.102 34.9772C121.102 37.5176 119.04 39.5795 116.5 39.5795Z" fill="white"/>
</svg>
