<svg width="187" height="41" viewBox="0 0 187 41" fill="none" xmlns="http://www.w3.org/2000/svg">
<path d="M0.615234 7.86328H5.34375L8.0332 25.916L14.5723 7.86328H19.0547L25.1719 25.2129L28.0195 7.86328H32.6074L27.8789 33H23.4492L16.541 13.2773L9.12305 33H4.74609L0.615234 7.86328ZM44.1345 20.3613C44.1345 26.209 46.7302 29.1328 51.9216 29.1328C56.9841 29.1328 59.5153 26.209 59.5153 20.3613C59.5153 14.6074 56.9841 11.7305 51.9216 11.7305C46.7302 11.7305 44.1345 14.6074 44.1345 20.3613ZM39.3005 20.4668C39.3005 11.9473 43.5075 7.6875 51.9216 7.6875C60.2067 7.6875 64.3493 11.9473 64.3493 20.4668C64.3493 28.9395 60.2067 33.1758 51.9216 33.1758C43.8825 33.1758 39.6755 28.9395 39.3005 20.4668ZM73.0814 33V7.86328H77.7396L91.0111 26.1797V7.86328H95.4935V33H90.8353L77.5638 14.2969V33H73.0814ZM114.948 28.957C120.163 28.957 122.771 25.8867 122.771 19.7461C122.771 14.5195 120.163 11.9062 114.948 11.9062H109.763V28.957H114.948ZM105.105 33V7.86328H114.948C123.269 7.86328 127.429 11.8242 127.429 19.7461C127.429 28.582 123.269 33 114.948 33H105.105ZM152.93 7.86328V11.8711H140.344V18.1992H152.333V22.3652H140.292V28.957H153.176V33H135.721V7.86328H152.93ZM161.803 32.9648V7.86328H173.229C178.362 7.86328 180.928 10.1074 180.928 14.5957C180.928 17.6309 178.93 20.1445 174.934 22.1367L182.897 33H177.026L169.379 22.0488V19.9219C173.832 19.1602 176.059 17.4316 176.059 14.7363C176.059 12.8848 175.016 11.959 172.93 11.959H166.549V32.9648H161.803Z" fill="#222F4B"/>
</svg>
