<svg width="393" height="393" viewBox="0 0 393 393" fill="none" xmlns="http://www.w3.org/2000/svg">
<circle cx="196.025" cy="196.025" r="142" transform="rotate(60 196.025 196.025)" fill="white" stroke="#2196F3" stroke-width="3"/>
<path d="M272.44 65.6416L281.38 61.2933L280.773 71.2161L251.592 105.819L272.44 65.6416Z" fill="#FFC107"/>
<path d="M117.568 217.932C114.674 217.099 112.564 216.08 111.24 214.873C109.928 213.654 109.271 212.154 109.271 210.373C109.271 208.357 110.074 206.693 111.68 205.381C113.297 204.057 115.395 203.394 117.973 203.394C119.73 203.394 121.295 203.734 122.666 204.414C124.049 205.094 125.115 206.031 125.865 207.226C126.627 208.422 127.008 209.728 127.008 211.146H123.615C123.615 209.599 123.123 208.387 122.139 207.508C121.154 206.617 119.766 206.172 117.973 206.172C116.309 206.172 115.008 206.541 114.07 207.279C113.145 208.006 112.682 209.019 112.682 210.32C112.682 211.363 113.121 212.248 114 212.974C114.891 213.689 116.396 214.346 118.518 214.943C120.65 215.541 122.314 216.203 123.51 216.93C124.717 217.644 125.607 218.482 126.182 219.443C126.768 220.404 127.061 221.535 127.061 222.836C127.061 224.91 126.252 226.574 124.635 227.828C123.018 229.07 120.855 229.691 118.148 229.691C116.391 229.691 114.75 229.357 113.227 228.689C111.703 228.01 110.525 227.084 109.693 225.912C108.873 224.74 108.463 223.41 108.463 221.922H111.855C111.855 223.469 112.424 224.693 113.561 225.596C114.709 226.486 116.238 226.932 118.148 226.932C119.93 226.932 121.295 226.568 122.244 225.842C123.193 225.115 123.668 224.125 123.668 222.871C123.668 221.617 123.229 220.65 122.35 219.971C121.471 219.279 119.877 218.599 117.568 217.932ZM134.426 229.34H131.174V210.32H134.426V229.34ZM130.91 205.275C130.91 204.748 131.068 204.303 131.385 203.939C131.713 203.576 132.193 203.394 132.826 203.394C133.459 203.394 133.939 203.576 134.268 203.939C134.596 204.303 134.76 204.748 134.76 205.275C134.76 205.803 134.596 206.242 134.268 206.594C133.939 206.945 133.459 207.121 132.826 207.121C132.193 207.121 131.713 206.945 131.385 206.594C131.068 206.242 130.91 205.803 130.91 205.275ZM143.18 229.34H139.928V202.34H143.18V229.34ZM154.676 224.928L159.387 210.32H162.709L155.889 229.34H153.41L146.52 210.32H149.842L154.676 224.928ZM173.484 229.691C170.906 229.691 168.809 228.848 167.191 227.16C165.574 225.461 164.766 223.193 164.766 220.357V219.76C164.766 217.873 165.123 216.191 165.838 214.715C166.564 213.226 167.572 212.066 168.861 211.234C170.162 210.391 171.568 209.969 173.08 209.969C175.553 209.969 177.475 210.783 178.846 212.412C180.217 214.041 180.902 216.373 180.902 219.408V220.762H168.018C168.064 222.637 168.609 224.154 169.652 225.314C170.707 226.463 172.043 227.037 173.66 227.037C174.809 227.037 175.781 226.803 176.578 226.334C177.375 225.865 178.072 225.244 178.67 224.471L180.656 226.017C179.062 228.467 176.672 229.691 173.484 229.691ZM173.08 212.641C171.768 212.641 170.666 213.121 169.775 214.082C168.885 215.031 168.334 216.367 168.123 218.09H177.65V217.844C177.557 216.191 177.111 214.914 176.314 214.012C175.518 213.098 174.439 212.641 173.08 212.641ZM193.875 213.238C193.383 213.156 192.85 213.115 192.275 213.115C190.143 213.115 188.695 214.023 187.934 215.84V229.34H184.682V210.32H187.846L187.898 212.517C188.965 210.818 190.477 209.969 192.434 209.969C193.066 209.969 193.547 210.051 193.875 210.215V213.238ZM220.436 218.037H209.695V229.34H206.32V203.746H222.176V206.523H209.695V215.277H220.436V218.037ZM233.215 229.691C230.637 229.691 228.539 228.848 226.922 227.16C225.305 225.461 224.496 223.193 224.496 220.357V219.76C224.496 217.873 224.854 216.191 225.568 214.715C226.295 213.226 227.303 212.066 228.592 211.234C229.893 210.391 231.299 209.969 232.811 209.969C235.283 209.969 237.205 210.783 238.576 212.412C239.947 214.041 240.633 216.373 240.633 219.408V220.762H227.748C227.795 222.637 228.34 224.154 229.383 225.314C230.438 226.463 231.773 227.037 233.391 227.037C234.539 227.037 235.512 226.803 236.309 226.334C237.105 225.865 237.803 225.244 238.4 224.471L240.387 226.017C238.793 228.467 236.402 229.691 233.215 229.691ZM232.811 212.641C231.498 212.641 230.396 213.121 229.506 214.082C228.615 215.031 228.064 216.367 227.854 218.09H237.381V217.844C237.287 216.191 236.842 214.914 236.045 214.012C235.248 213.098 234.17 212.641 232.811 212.641ZM253.605 213.238C253.113 213.156 252.58 213.115 252.006 213.115C249.873 213.115 248.426 214.023 247.664 215.84V229.34H244.412V210.32H247.576L247.629 212.517C248.695 210.818 250.207 209.969 252.164 209.969C252.797 209.969 253.277 210.051 253.605 210.215V213.238ZM259.688 210.32L259.793 212.711C261.246 210.883 263.145 209.969 265.488 209.969C269.508 209.969 271.535 212.236 271.57 216.771V229.34H268.318V216.754C268.307 215.383 267.99 214.369 267.369 213.713C266.76 213.057 265.805 212.728 264.504 212.728C263.449 212.728 262.523 213.01 261.727 213.572C260.93 214.135 260.309 214.873 259.863 215.787V229.34H256.611V210.32H259.688ZM170.76 261.037H160.02V272.34H156.645V246.746H172.5V249.523H160.02V258.277H170.76V261.037ZM187.178 272.34C186.99 271.965 186.838 271.297 186.721 270.336C185.209 271.906 183.404 272.691 181.307 272.691C179.432 272.691 177.891 272.164 176.684 271.109C175.488 270.043 174.891 268.695 174.891 267.066C174.891 265.086 175.641 263.551 177.141 262.461C178.652 261.359 180.773 260.808 183.504 260.808H186.668V259.314C186.668 258.178 186.328 257.275 185.648 256.607C184.969 255.928 183.967 255.588 182.643 255.588C181.482 255.588 180.51 255.881 179.725 256.467C178.939 257.053 178.547 257.762 178.547 258.594H175.277C175.277 257.644 175.611 256.73 176.279 255.851C176.959 254.961 177.873 254.258 179.021 253.742C180.182 253.226 181.453 252.969 182.836 252.969C185.027 252.969 186.744 253.519 187.986 254.621C189.229 255.711 189.873 257.217 189.92 259.139V267.892C189.92 269.639 190.143 271.027 190.588 272.058V272.34H187.178ZM181.781 269.861C182.801 269.861 183.768 269.598 184.682 269.07C185.596 268.543 186.258 267.857 186.668 267.014V263.111H184.119C180.135 263.111 178.143 264.277 178.143 266.609C178.143 267.629 178.482 268.426 179.162 269C179.842 269.574 180.715 269.861 181.781 269.861ZM204.211 256.238C203.719 256.156 203.186 256.115 202.611 256.115C200.479 256.115 199.031 257.023 198.27 258.84V272.34H195.018V253.32H198.182L198.234 255.517C199.301 253.818 200.812 252.969 202.77 252.969C203.402 252.969 203.883 253.051 204.211 253.215V256.238ZM210.275 253.32L210.363 255.43C211.758 253.789 213.639 252.969 216.006 252.969C218.666 252.969 220.477 253.988 221.438 256.027C222.07 255.113 222.891 254.375 223.898 253.812C224.918 253.25 226.119 252.969 227.502 252.969C231.674 252.969 233.795 255.178 233.865 259.596V272.34H230.613V259.789C230.613 258.43 230.303 257.416 229.682 256.748C229.061 256.068 228.018 255.728 226.553 255.728C225.346 255.728 224.344 256.092 223.547 256.818C222.75 257.533 222.287 258.5 222.158 259.719V272.34H218.889V259.877C218.889 257.111 217.535 255.728 214.828 255.728C212.695 255.728 211.236 256.637 210.451 258.453V272.34H207.199V253.32H210.275Z" fill="#959BA2"/>
<path d="M118.789 174.968L122.129 168.543H124.045L119.633 176.567V181.34H117.945V176.567L113.533 168.543H115.467L118.789 174.968ZM124.432 176.497C124.432 175.565 124.613 174.727 124.977 173.983C125.346 173.239 125.855 172.665 126.506 172.261C127.162 171.856 127.909 171.654 128.747 171.654C130.042 171.654 131.088 172.102 131.885 172.999C132.688 173.895 133.089 175.088 133.089 176.576V176.69C133.089 177.616 132.91 178.448 132.553 179.186C132.201 179.919 131.694 180.49 131.032 180.9C130.376 181.31 129.62 181.516 128.765 181.516C127.476 181.516 126.43 181.067 125.627 180.171C124.83 179.274 124.432 178.088 124.432 176.611V176.497ZM126.066 176.69C126.066 177.745 126.31 178.592 126.796 179.23C127.288 179.869 127.944 180.188 128.765 180.188C129.591 180.188 130.247 179.866 130.733 179.222C131.22 178.571 131.463 177.663 131.463 176.497C131.463 175.454 131.214 174.61 130.716 173.966C130.224 173.315 129.567 172.99 128.747 172.99C127.944 172.99 127.297 173.309 126.805 173.948C126.312 174.587 126.066 175.501 126.066 176.69ZM140.999 180.399C140.366 181.143 139.438 181.516 138.213 181.516C137.199 181.516 136.426 181.223 135.893 180.637C135.365 180.045 135.099 179.172 135.093 178.017V171.83H136.719V177.974C136.719 179.415 137.305 180.136 138.477 180.136C139.719 180.136 140.545 179.673 140.955 178.747V171.83H142.581V181.34H141.034L140.999 180.399ZM151.15 172.981C151.871 172.097 152.809 171.654 153.963 171.654C155.973 171.654 156.986 172.788 157.004 175.056V181.34H155.378V175.047C155.372 174.361 155.214 173.854 154.903 173.526C154.599 173.198 154.121 173.034 153.471 173.034C152.943 173.034 152.48 173.175 152.082 173.456C151.684 173.737 151.373 174.106 151.15 174.563V181.34H149.524V167.84H151.15V172.981ZM165.31 181.34C165.216 181.152 165.14 180.818 165.081 180.338C164.325 181.123 163.423 181.516 162.374 181.516C161.437 181.516 160.666 181.252 160.062 180.724C159.465 180.191 159.166 179.517 159.166 178.703C159.166 177.713 159.541 176.945 160.291 176.4C161.047 175.849 162.107 175.574 163.473 175.574H165.055V174.827C165.055 174.259 164.885 173.807 164.545 173.474C164.205 173.134 163.704 172.964 163.042 172.964C162.462 172.964 161.976 173.11 161.583 173.403C161.19 173.696 160.994 174.051 160.994 174.467H159.359C159.359 173.992 159.526 173.535 159.86 173.096C160.2 172.65 160.657 172.299 161.231 172.041C161.812 171.783 162.447 171.654 163.139 171.654C164.234 171.654 165.093 171.93 165.714 172.48C166.335 173.025 166.657 173.778 166.681 174.739V179.116C166.681 179.989 166.792 180.683 167.015 181.199V181.34H165.31ZM162.611 180.1C163.121 180.1 163.604 179.969 164.062 179.705C164.519 179.441 164.85 179.099 165.055 178.677V176.725H163.78C161.788 176.725 160.792 177.308 160.792 178.474C160.792 178.984 160.962 179.383 161.302 179.67C161.642 179.957 162.078 180.1 162.611 180.1ZM172.227 179.134L174.582 171.83H176.243L172.833 181.34H171.594L168.148 171.83H169.81L172.227 179.134ZM181.631 181.516C180.342 181.516 179.293 181.094 178.484 180.25C177.676 179.4 177.271 178.266 177.271 176.849V176.55C177.271 175.606 177.45 174.766 177.808 174.027C178.171 173.283 178.675 172.703 179.319 172.287C179.97 171.865 180.673 171.654 181.429 171.654C182.665 171.654 183.626 172.061 184.312 172.876C184.997 173.69 185.34 174.856 185.34 176.374V177.051H178.897C178.921 177.988 179.193 178.747 179.715 179.327C180.242 179.901 180.91 180.188 181.719 180.188C182.293 180.188 182.779 180.071 183.178 179.837C183.576 179.602 183.925 179.292 184.224 178.905L185.217 179.679C184.42 180.903 183.225 181.516 181.631 181.516ZM181.429 172.99C180.772 172.99 180.222 173.23 179.776 173.711C179.331 174.185 179.056 174.853 178.95 175.715H183.714V175.592C183.667 174.766 183.444 174.127 183.046 173.676C182.647 173.219 182.108 172.99 181.429 172.99ZM191.299 176.506C191.299 175.047 191.645 173.875 192.336 172.99C193.027 172.099 193.933 171.654 195.052 171.654C196.165 171.654 197.047 172.035 197.697 172.797V167.84H199.323V181.34H197.829L197.75 180.32C197.1 181.117 196.194 181.516 195.034 181.516C193.933 181.516 193.033 181.064 192.336 180.162C191.645 179.26 191.299 178.082 191.299 176.629V176.506ZM192.925 176.69C192.925 177.768 193.147 178.612 193.593 179.222C194.038 179.831 194.653 180.136 195.438 180.136C196.47 180.136 197.223 179.673 197.697 178.747V174.379C197.211 173.482 196.464 173.034 195.456 173.034C194.659 173.034 194.038 173.342 193.593 173.957C193.147 174.572 192.925 175.483 192.925 176.69ZM203.621 181.34H201.995V171.83H203.621V181.34ZM201.863 169.307C201.863 169.044 201.942 168.821 202.101 168.64C202.265 168.458 202.505 168.367 202.821 168.367C203.138 168.367 203.378 168.458 203.542 168.64C203.706 168.821 203.788 169.044 203.788 169.307C203.788 169.571 203.706 169.791 203.542 169.967C203.378 170.142 203.138 170.23 202.821 170.23C202.505 170.23 202.265 170.142 202.101 169.967C201.942 169.791 201.863 169.571 201.863 169.307ZM211.769 178.817C211.769 178.378 211.602 178.038 211.268 177.798C210.939 177.552 210.362 177.341 209.536 177.165C208.716 176.989 208.062 176.778 207.576 176.532C207.096 176.286 206.738 175.993 206.504 175.653C206.275 175.313 206.161 174.909 206.161 174.44C206.161 173.661 206.489 173.002 207.146 172.463C207.808 171.924 208.651 171.654 209.677 171.654C210.755 171.654 211.628 171.932 212.296 172.489C212.97 173.046 213.307 173.758 213.307 174.625H211.672C211.672 174.18 211.481 173.796 211.101 173.474C210.726 173.151 210.251 172.99 209.677 172.99C209.085 172.99 208.622 173.119 208.288 173.377C207.954 173.635 207.787 173.972 207.787 174.388C207.787 174.78 207.942 175.076 208.253 175.275C208.563 175.474 209.123 175.665 209.932 175.847C210.746 176.028 211.405 176.245 211.909 176.497C212.413 176.749 212.785 177.054 213.025 177.411C213.271 177.763 213.395 178.193 213.395 178.703C213.395 179.553 213.055 180.235 212.375 180.751C211.695 181.261 210.813 181.516 209.729 181.516C208.968 181.516 208.294 181.381 207.708 181.111C207.122 180.842 206.662 180.467 206.328 179.986C206 179.5 205.836 178.975 205.836 178.413H207.462C207.491 178.958 207.708 179.391 208.112 179.714C208.522 180.03 209.062 180.188 209.729 180.188C210.345 180.188 210.837 180.065 211.206 179.819C211.581 179.567 211.769 179.233 211.769 178.817ZM219.327 180.188C219.907 180.188 220.414 180.013 220.848 179.661C221.281 179.309 221.521 178.87 221.568 178.343H223.106C223.077 178.888 222.89 179.406 222.544 179.898C222.198 180.391 221.735 180.783 221.155 181.076C220.581 181.369 219.972 181.516 219.327 181.516C218.032 181.516 217.001 181.085 216.233 180.224C215.472 179.356 215.091 178.173 215.091 176.673V176.4C215.091 175.474 215.261 174.651 215.601 173.931C215.94 173.21 216.427 172.65 217.06 172.252C217.698 171.853 218.451 171.654 219.318 171.654C220.385 171.654 221.27 171.974 221.973 172.612C222.682 173.251 223.06 174.08 223.106 175.099H221.568C221.521 174.484 221.287 173.98 220.865 173.588C220.449 173.189 219.934 172.99 219.318 172.99C218.492 172.99 217.851 173.289 217.394 173.887C216.942 174.478 216.717 175.337 216.717 176.462V176.769C216.717 177.865 216.942 178.709 217.394 179.301C217.845 179.892 218.489 180.188 219.327 180.188ZM224.504 176.497C224.504 175.565 224.686 174.727 225.049 173.983C225.418 173.239 225.928 172.665 226.578 172.261C227.234 171.856 227.981 171.654 228.819 171.654C230.114 171.654 231.16 172.102 231.957 172.999C232.76 173.895 233.161 175.088 233.161 176.576V176.69C233.161 177.616 232.982 178.448 232.625 179.186C232.273 179.919 231.767 180.49 231.104 180.9C230.448 181.31 229.692 181.516 228.837 181.516C227.548 181.516 226.502 181.067 225.699 180.171C224.902 179.274 224.504 178.088 224.504 176.611V176.497ZM226.139 176.69C226.139 177.745 226.382 178.592 226.868 179.23C227.36 179.869 228.017 180.188 228.837 180.188C229.663 180.188 230.319 179.866 230.806 179.222C231.292 178.571 231.535 177.663 231.535 176.497C231.535 175.454 231.286 174.61 230.788 173.966C230.296 173.315 229.64 172.99 228.819 172.99C228.017 172.99 227.369 173.309 226.877 173.948C226.385 174.587 226.139 175.501 226.139 176.69ZM238.197 179.134L240.553 171.83H242.214L238.804 181.34H237.564L234.119 171.83H235.78L238.197 179.134ZM247.602 181.516C246.312 181.516 245.264 181.094 244.455 180.25C243.646 179.4 243.242 178.266 243.242 176.849V176.55C243.242 175.606 243.421 174.766 243.778 174.027C244.142 173.283 244.646 172.703 245.29 172.287C245.94 171.865 246.644 171.654 247.399 171.654C248.636 171.654 249.597 172.061 250.282 172.876C250.968 173.69 251.311 174.856 251.311 176.374V177.051H244.868C244.892 177.988 245.164 178.747 245.686 179.327C246.213 179.901 246.881 180.188 247.689 180.188C248.264 180.188 248.75 180.071 249.148 179.837C249.547 179.602 249.896 179.292 250.194 178.905L251.188 179.679C250.391 180.903 249.195 181.516 247.602 181.516ZM247.399 172.99C246.743 172.99 246.192 173.23 245.747 173.711C245.302 174.185 245.026 174.853 244.921 175.715H249.685V175.592C249.638 174.766 249.415 174.127 249.017 173.676C248.618 173.219 248.079 172.99 247.399 172.99ZM257.797 173.289C257.551 173.248 257.284 173.227 256.997 173.227C255.931 173.227 255.207 173.682 254.826 174.59V181.34H253.2V171.83H254.782L254.809 172.929C255.342 172.079 256.098 171.654 257.076 171.654C257.393 171.654 257.633 171.695 257.797 171.777V173.289ZM263.07 181.516C261.781 181.516 260.732 181.094 259.924 180.25C259.115 179.4 258.711 178.266 258.711 176.849V176.55C258.711 175.606 258.89 174.766 259.247 174.027C259.61 173.283 260.114 172.703 260.759 172.287C261.409 171.865 262.112 171.654 262.868 171.654C264.104 171.654 265.065 172.061 265.751 172.876C266.437 173.69 266.779 174.856 266.779 176.374V177.051H260.337C260.36 177.988 260.633 178.747 261.154 179.327C261.682 179.901 262.35 180.188 263.158 180.188C263.732 180.188 264.219 180.071 264.617 179.837C265.016 179.602 265.364 179.292 265.663 178.905L266.656 179.679C265.859 180.903 264.664 181.516 263.07 181.516ZM262.868 172.99C262.212 172.99 261.661 173.23 261.216 173.711C260.771 174.185 260.495 174.853 260.39 175.715H265.153V175.592C265.106 174.766 264.884 174.127 264.485 173.676C264.087 173.219 263.548 172.99 262.868 172.99ZM268.273 176.506C268.273 175.047 268.619 173.875 269.311 172.99C270.002 172.099 270.907 171.654 272.026 171.654C273.14 171.654 274.021 172.035 274.672 172.797V167.84H276.298V181.34H274.804L274.725 180.32C274.074 181.117 273.169 181.516 272.009 181.516C270.907 181.516 270.008 181.064 269.311 180.162C268.619 179.26 268.273 178.082 268.273 176.629V176.506ZM269.899 176.69C269.899 177.768 270.122 178.612 270.567 179.222C271.013 179.831 271.628 180.136 272.413 180.136C273.444 180.136 274.197 179.673 274.672 178.747V174.379C274.186 173.482 273.438 173.034 272.431 173.034C271.634 173.034 271.013 173.342 270.567 173.957C270.122 174.572 269.899 175.483 269.899 176.69Z" fill="#959BA2"/>
<circle cx="195" cy="132.34" r="22" fill="#2196F3"/>
<path d="M195 122.34C191.13 122.34 188 125.47 188 129.34C188 134.59 195 142.34 195 142.34C195 142.34 202 134.59 202 129.34C202 125.47 198.87 122.34 195 122.34ZM195 131.84C193.62 131.84 192.5 130.72 192.5 129.34C192.5 127.96 193.62 126.84 195 126.84C196.38 126.84 197.5 127.96 197.5 129.34C197.5 130.72 196.38 131.84 195 131.84Z" fill="white"/>
</svg>
