<svg width="316" height="307" viewBox="0 0 316 307" fill="none" xmlns="http://www.w3.org/2000/svg">
<circle cx="153.5" cy="163.5" r="142" fill="white" stroke="#2196F3" stroke-width="3" stroke-dasharray="12 8"/>
<path d="M78.7927 32.1308L79.4969 22.2145L87.7866 27.7019L103.164 70.2743L78.7927 32.1308Z" fill="#FFC107"/>
<line x1="88.7467" y1="102" x2="4.4538" y2="17.7071" stroke="#2196F3" stroke-linecap="round" stroke-linejoin="round"/>
<path d="M7.1705 15.4569L8.18972 14.4377L25.4503 17.8268L15.1254 7.50197L16.153 6.47445L28.218 18.5395L27.1905 19.567L9.9133 16.1778L20.2464 26.511L19.2355 27.5219L7.1705 15.4569Z" fill="#2196F3"/>
<path d="M245.226 42.7135L262.824 40.8815L264.687 58.4765L213.731 101.493L245.226 42.7135Z" fill="#2196F3"/>
<circle cx="257.5" cy="20.5" r="15.5" fill="#2196F3"/>
<path d="M250.627 25H249.447V17.1733L247.079 18.043V16.9766L250.443 15.7134H250.627V25ZM254.607 20.3662L255.077 15.7578H259.812V16.8433H256.074L255.794 19.3633C256.247 19.0967 256.761 18.9634 257.337 18.9634C258.179 18.9634 258.848 19.2427 259.343 19.8013C259.838 20.3556 260.085 21.1068 260.085 22.0547C260.085 23.0068 259.827 23.758 259.311 24.3081C258.799 24.854 258.082 25.127 257.159 25.127C256.342 25.127 255.676 24.9006 255.16 24.4478C254.643 23.995 254.349 23.3687 254.277 22.5688H255.388C255.46 23.0978 255.648 23.4977 255.953 23.7686C256.258 24.0352 256.66 24.1685 257.159 24.1685C257.705 24.1685 258.132 23.9823 258.441 23.6099C258.755 23.2375 258.911 22.7233 258.911 22.0674C258.911 21.4495 258.742 20.9544 258.403 20.582C258.069 20.2054 257.623 20.0171 257.064 20.0171C256.552 20.0171 256.15 20.1292 255.858 20.3535L255.547 20.6074L254.607 20.3662ZM267.423 25H261.368V24.1558L264.567 20.6011C265.041 20.0636 265.367 19.6278 265.544 19.2935C265.726 18.9549 265.817 18.6058 265.817 18.2461C265.817 17.7637 265.671 17.368 265.379 17.0591C265.087 16.7502 264.698 16.5957 264.211 16.5957C263.627 16.5957 263.173 16.7629 262.847 17.0972C262.525 17.4272 262.364 17.8885 262.364 18.481H261.19C261.19 17.6304 261.463 16.9427 262.009 16.418C262.559 15.8932 263.293 15.6309 264.211 15.6309C265.07 15.6309 265.75 15.8573 266.249 16.3101C266.748 16.7586 266.998 17.3574 266.998 18.1064C266.998 19.0163 266.418 20.0996 265.259 21.3564L262.783 24.0415H267.423V25Z" fill="white"/>
<path d="M277.008 267.696L278.339 280.484L265.554 281.838L234.295 244.809L277.008 267.696Z" fill="#2196F3"/>
<circle cx="299.875" cy="274.5" r="15.5" fill="#2196F3"/>
<path d="M298.726 275.896H300.008V276.854H298.726V279H297.545V276.854H293.336V276.163L297.475 269.758H298.726V275.896ZM294.669 275.896H297.545V271.364L297.405 271.618L294.669 275.896ZM306.863 275.058C306.863 276.433 306.628 277.455 306.159 278.124C305.689 278.793 304.955 279.127 303.956 279.127C302.97 279.127 302.24 278.801 301.766 278.149C301.292 277.493 301.047 276.516 301.03 275.217V273.649C301.03 272.291 301.265 271.281 301.734 270.621C302.204 269.961 302.94 269.631 303.943 269.631C304.938 269.631 305.67 269.95 306.14 270.589C306.609 271.224 306.851 272.206 306.863 273.535V275.058ZM305.689 273.452C305.689 272.458 305.549 271.734 305.27 271.281C304.991 270.824 304.549 270.596 303.943 270.596C303.342 270.596 302.904 270.822 302.629 271.275C302.354 271.728 302.213 272.424 302.204 273.363V275.242C302.204 276.241 302.348 276.979 302.636 277.458C302.928 277.931 303.368 278.168 303.956 278.168C304.536 278.168 304.965 277.944 305.245 277.496C305.528 277.047 305.676 276.34 305.689 275.375V273.452Z" fill="white"/>
</svg>
