<svg width="303" height="84" viewBox="0 0 303 84" fill="none" xmlns="http://www.w3.org/2000/svg">
<rect width="303" height="84" rx="42" fill="#0B1927"/>
<rect width="303" height="84" rx="42" fill="url(#paint0_linear)" fill-opacity="0.5"/>
<rect width="303" height="84" rx="42" fill="url(#paint1_linear)" fill-opacity="0.2"/>
<g filter="url(#filter0_d)">
<circle cx="42" cy="42" r="30" fill="white"/>
</g>
<path d="M126.438 41.1699H115.346V50.2402H128.23V53H111.971V27.4062H128.055V30.1836H115.346V38.4102H126.438V41.1699ZM134.998 33.9805L135.104 36.3711C136.557 34.543 138.455 33.6289 140.799 33.6289C144.818 33.6289 146.846 35.8965 146.881 40.4316V53H143.629V40.4141C143.617 39.043 143.301 38.0293 142.68 37.373C142.07 36.7168 141.115 36.3887 139.814 36.3887C138.76 36.3887 137.834 36.6699 137.037 37.2324C136.24 37.7949 135.619 38.5332 135.174 39.4473V53H131.922V33.9805H134.998ZM156.197 29.375V33.9805H159.748V36.4941H156.197V48.2891C156.197 49.0508 156.355 49.625 156.672 50.0117C156.988 50.3867 157.527 50.5742 158.289 50.5742C158.664 50.5742 159.18 50.5039 159.836 50.3633V53C158.98 53.2344 158.148 53.3516 157.34 53.3516C155.887 53.3516 154.791 52.9121 154.053 52.0332C153.314 51.1543 152.945 49.9062 152.945 48.2891V36.4941H149.482V33.9805H152.945V29.375H156.197ZM171.455 53.3516C168.877 53.3516 166.779 52.5078 165.162 50.8203C163.545 49.1211 162.736 46.8535 162.736 44.0176V43.4199C162.736 41.5332 163.094 39.8516 163.809 38.375C164.535 36.8867 165.543 35.7266 166.832 34.8945C168.133 34.0508 169.539 33.6289 171.051 33.6289C173.523 33.6289 175.445 34.4434 176.816 36.0723C178.188 37.7012 178.873 40.0332 178.873 43.0684V44.4219H165.988C166.035 46.2969 166.58 47.8145 167.623 48.9746C168.678 50.123 170.014 50.6973 171.631 50.6973C172.779 50.6973 173.752 50.4629 174.549 49.9941C175.346 49.5254 176.043 48.9043 176.641 48.1309L178.627 49.6777C177.033 52.127 174.643 53.3516 171.455 53.3516ZM171.051 36.3008C169.738 36.3008 168.637 36.7812 167.746 37.7422C166.855 38.6914 166.305 40.0273 166.094 41.75H175.621V41.5039C175.527 39.8516 175.082 38.5742 174.285 37.6719C173.488 36.7578 172.41 36.3008 171.051 36.3008ZM191.846 36.8984C191.354 36.8164 190.82 36.7754 190.246 36.7754C188.113 36.7754 186.666 37.6836 185.904 39.5V53H182.652V33.9805H185.816L185.869 36.1777C186.936 34.4785 188.447 33.6289 190.404 33.6289C191.037 33.6289 191.518 33.7109 191.846 33.875V36.8984Z" fill="white"/>
<defs>
<filter id="filter0_d" x="7" y="7" width="70" height="70" filterUnits="userSpaceOnUse" color-interpolation-filters="sRGB">
<feFlood flood-opacity="0" result="BackgroundImageFix"/>
<feColorMatrix in="SourceAlpha" type="matrix" values="0 0 0 0 0 0 0 0 0 0 0 0 0 0 0 0 0 0 127 0"/>
<feOffset/>
<feGaussianBlur stdDeviation="2.5"/>
<feColorMatrix type="matrix" values="0 0 0 0 0 0 0 0 0 0 0 0 0 0 0 0 0 0 0.5 0"/>
<feBlend mode="normal" in2="BackgroundImageFix" result="effect1_dropShadow"/>
<feBlend mode="normal" in="SourceGraphic" in2="effect1_dropShadow" result="shape"/>
</filter>
<linearGradient id="paint0_linear" x1="303" y1="17.3251" x2="14.0826" y2="57.319" gradientUnits="userSpaceOnUse">
<stop stop-color="#102B58"/>
<stop offset="1" stop-color="#5F5F87"/>
</linearGradient>
<linearGradient id="paint1_linear" x1="-4.04" y1="84" x2="292.928" y2="33.2873" gradientUnits="userSpaceOnUse">
<stop stop-color="#FBA3D4"/>
<stop offset="0.646826" stop-color="white" stop-opacity="0"/>
</linearGradient>
</defs>
</svg>
