<svg width="64" height="64" viewBox="0 0 64 64" fill="none" xmlns="http://www.w3.org/2000/svg">
<path d="M2.79753e-06 32C4.34256e-06 14.3269 14.3269 -4.34256e-06 32 -2.79753e-06C49.6731 -1.2525e-06 64 14.3269 64 32C64 49.6731 49.6731 64 32 64C14.3269 64 1.2525e-06 49.6731 2.79753e-06 32ZM58.2215 32C58.2215 17.5182 46.4818 5.77847 32 5.77847C17.5183 5.77847 5.77847 17.5182 5.77847 32C5.77847 46.4817 17.5183 58.2215 32 58.2215C46.4818 58.2215 58.2215 46.4818 58.2215 32Z" fill="#DADADA"/>
<path d="M32 -2.79753e-06C37.3918 -2.32616e-06 42.6962 1.36238 47.4206 3.96065C52.145 6.55891 56.1364 10.3088 59.024 14.8622C61.9116 19.4155 63.6018 24.6247 63.9378 30.006C64.2738 35.3873 63.2446 40.7662 60.9458 45.6434C58.6469 50.5206 55.153 54.7378 50.7885 57.9035C46.4239 61.0693 41.3302 63.0808 35.9803 63.7515C30.6304 64.4221 25.1977 63.7301 20.1868 61.7397C15.1759 59.7492 10.7491 56.5249 7.31756 52.3661L11.7746 48.6884C14.5865 52.0963 18.2139 54.7383 22.32 56.3694C26.4261 58.0004 30.8777 58.5674 35.2615 58.0179C39.6454 57.4684 43.8193 55.82 47.3957 53.226C50.9721 50.6319 53.8351 47.1762 55.7188 43.1797C57.6025 39.1833 58.4459 34.7756 58.1706 30.3661C57.8953 25.9565 56.5102 21.688 54.1441 17.9569C51.7779 14.2257 48.5073 11.153 44.636 9.02391C40.7647 6.89483 36.4182 5.77847 32 5.77847L32 -2.79753e-06Z" fill="#2196F3"/>
<path d="M27.9258 22.9258V24.7656H27.5273C25.8398 24.7969 24.4961 25.2969 23.4961 26.2656C22.4961 27.2344 21.918 28.5977 21.7617 30.3555C22.6602 29.3242 23.8867 28.8086 25.4414 28.8086C26.9258 28.8086 28.1094 29.332 28.9922 30.3789C29.8828 31.4258 30.3281 32.7773 30.3281 34.4336C30.3281 36.1914 29.8477 37.5977 28.8867 38.6523C27.9336 39.707 26.6523 40.2344 25.043 40.2344C23.4102 40.2344 22.0859 39.6094 21.0703 38.3594C20.0547 37.1016 19.5469 35.4844 19.5469 33.5078V32.6758C19.5469 29.5352 20.2148 27.1367 21.5508 25.4805C22.8945 23.8164 24.8906 22.9648 27.5391 22.9258H27.9258ZM25.0781 30.6133C24.3359 30.6133 23.6523 30.8359 23.0273 31.2812C22.4023 31.7266 21.9688 32.2852 21.7266 32.957V33.7539C21.7266 35.1602 22.043 36.293 22.6758 37.1523C23.3086 38.0117 24.0977 38.4414 25.043 38.4414C26.0195 38.4414 26.7852 38.082 27.3398 37.3633C27.9023 36.6445 28.1836 35.7031 28.1836 34.5391C28.1836 33.3672 27.8984 32.4219 27.3281 31.7031C26.7656 30.9766 26.0156 30.6133 25.0781 30.6133ZM43.9102 24.1562L36.8438 40H34.5703L41.6133 24.7188H32.3789V22.9375H43.9102V24.1562Z" fill="#959BA2"/>
</svg>
